<svg width="16" height="16" viewBox="0 0 16 16" fill="none" xmlns="http://www.w3.org/2000/svg"><path fill-rule="evenodd" clip-rule="evenodd" d="M15.7071 1.70711C16.0976 1.31658 16.0976 0.683417 15.7071 0.292893C15.3166 -0.0976311 14.6834 -0.0976311 14.2929 0.292893L7.99995 6.58583L1.70711 0.292985C1.31658 -0.0975386 0.683419 -0.097539 0.292894 0.292985C-0.09763 0.68351 -0.0976296 1.31667 0.292894 1.7072L6.58574 8.00005L0.292893 14.2929C-0.0976308 14.6834 -0.0976311 15.3166 0.292893 15.7071C0.683417 16.0976 1.31658 16.0976 1.70711 15.7071L7.99995 9.41426L14.2929 15.7072C14.6834 16.0977 15.3166 16.0977 15.7071 15.7072C16.0976 15.3167 16.0976 14.6835 15.7071 14.293L9.41417 8.00005L15.7071 1.70711Z" fill="#3A3A3A"></path></svg>
