<svg width="62" height="22" viewBox="0 0 62 22" fill="none" xmlns="http://www.w3.org/2000/svg">
<path d="M37.1457 2.85543C37.1355 3.22937 37.1033 3.60185 37.0476 3.97069C37.021 4.20858 36.9311 4.43193 36.7887 4.60798H38.4951V2.21815H37.1704L37.1457 2.85543ZM39.8059 4.60725V6.27759H39.0501V5.39441H36.39V6.27759H35.6431V4.60725H35.8032C36.0229 4.60725 36.1729 4.43702 36.2488 4.12565C36.3463 3.68842 36.4007 3.24028 36.4115 2.78923L36.4558 1.43026H39.2983V4.60725H39.8059ZM31.6898 1.43463H32.4975V3.04531H34.2361V1.43463H35.0418V5.39441H34.2361V3.82883H32.4975V5.39441H31.6898V1.43463ZM29.0455 4.65236C29.1835 4.65745 29.3214 4.62908 29.4493 4.5687C29.5771 4.50904 29.693 4.41883 29.7885 4.30388C29.9759 4.05435 30.079 3.73571 30.079 3.40615C30.079 3.07659 29.9765 2.75795 29.7885 2.50842C29.5911 2.28871 29.3265 2.16576 29.0524 2.16576C28.7777 2.16576 28.5132 2.28871 28.3157 2.50842C28.1315 2.7594 28.0309 3.07732 28.0309 3.40615C28.0309 3.73498 28.1315 4.0529 28.3157 4.30388C28.41 4.41665 28.5233 4.50613 28.6486 4.56578C28.7746 4.62617 28.9094 4.65527 29.0455 4.65236ZM29.0455 5.44752C28.717 5.45261 28.3923 5.36312 28.1018 5.18707C27.829 5.02047 27.6005 4.77094 27.4423 4.46539C27.2853 4.14383 27.2049 3.78081 27.2106 3.41197C27.2049 3.04531 27.2847 2.68375 27.4423 2.36437C27.6011 2.05955 27.829 1.81074 28.1018 1.64487C28.3948 1.47391 28.7189 1.38443 29.0474 1.38443C29.3765 1.38443 29.7006 1.47391 29.9936 1.64487C30.267 1.80856 30.4942 2.0581 30.6499 2.36437C30.8113 2.68156 30.8936 3.04386 30.8886 3.41197C30.893 3.78154 30.8107 4.14529 30.6499 4.46539C30.4955 4.77167 30.2696 5.02193 29.9974 5.18707C29.7037 5.36458 29.3765 5.45406 29.0455 5.44752ZM21.9877 2.78341C21.9788 2.98275 22.0105 3.18208 22.0801 3.36468C22.1497 3.54729 22.2554 3.70952 22.389 3.83683C22.7308 4.12492 23.1403 4.28788 23.5643 4.30388V1.28112C22.5194 1.37133 21.9959 1.87404 21.9947 2.78923L21.9877 2.78341ZM24.3397 4.30388C24.7618 4.29734 25.172 4.14165 25.515 3.85938C25.6486 3.72843 25.7543 3.56329 25.8232 3.37778C25.8929 3.19227 25.9245 2.99075 25.9163 2.78923C25.9251 2.58772 25.8929 2.38693 25.8226 2.20287C25.7524 2.01881 25.6448 1.85585 25.5093 1.72781C25.1682 1.447 24.7593 1.29349 24.3397 1.28913V4.30388ZM26.7271 2.78996C26.7385 3.09624 26.6891 3.40106 26.5815 3.68187C26.4739 3.96196 26.3112 4.21077 26.1068 4.40719C25.6935 4.80513 25.1055 5.02047 24.3435 5.05466V5.60393H23.5675V5.05466C22.8067 5.00956 22.2175 4.79131 21.7991 4.40064C21.594 4.20567 21.4314 3.95905 21.3238 3.67896C21.2162 3.3996 21.1662 3.09478 21.1782 2.78923C21.1655 2.48368 21.2155 2.17886 21.3231 1.8995C21.4307 1.62014 21.5934 1.37279 21.7991 1.17855C22.2162 0.780606 22.8061 0.560174 23.5675 0.516524V0H24.3435V0.526709C25.1068 0.571814 25.6948 0.792246 26.1068 1.18873C26.3106 1.38225 26.4726 1.62742 26.5802 1.90532C26.6878 2.18323 26.7385 2.48586 26.7271 2.78996Z" fill="#2B3888"/>
<path d="M51.0183 9.78266C50.4968 9.78266 50.236 10.0067 50.236 10.4571C50.236 10.9037 50.4873 11.1249 50.9918 11.1249H51.8513V9.78266H51.0183ZM52.5823 9.00132V12.9669H51.8513V11.7702H50.9405L50.2272 12.9669H49.3734L50.186 11.6451C49.9595 11.5643 49.7595 11.4064 49.612 11.1918C49.4778 10.9678 49.4094 10.6993 49.4177 10.4272C49.4088 10.2257 49.4424 10.0242 49.5151 9.84086C49.5886 9.6568 49.6993 9.49602 49.8386 9.37234C50.1778 9.10535 50.5835 8.97513 50.9943 9.00132H52.5823ZM45.1321 9.00132H45.9404V11.6145L47.8391 9.00132H48.5752V12.9669H47.7676V10.3545L45.8688 12.9676H45.1251L45.1321 9.00132ZM44.5473 9.78848H43.3384V12.9669H42.5251V9.78848H41.3111V9.00132H44.5397L44.5473 9.78848ZM37.28 9.00132H38.0876V11.6145L39.9934 9.00132H40.7282V12.9669H39.9225V10.3545L38.0237 12.9676H37.28V9.00132ZM34.9654 12.2976C35.4103 12.2976 35.6325 12.131 35.6325 11.7993C35.6369 11.7258 35.6249 11.6516 35.5977 11.5839C35.5705 11.5163 35.5293 11.4581 35.4768 11.4137C35.3312 11.3126 35.1616 11.266 34.992 11.2806H34.0381V12.3056L34.9654 12.2976ZM34.0381 10.6578H34.885C35.3027 10.6578 35.511 10.4912 35.511 10.1595C35.511 9.83722 35.3027 9.6779 34.885 9.6779H34.0381V10.6578ZM35.7698 10.9037C35.9572 10.9474 36.1255 11.0674 36.2426 11.242C36.3603 11.4159 36.4192 11.6327 36.4097 11.8531C36.4148 12.0132 36.385 12.1725 36.323 12.3151C36.2603 12.4584 36.1679 12.5813 36.0534 12.673C35.7439 12.8913 35.3831 12.9931 35.0204 12.964H33.2628V9.00132H34.9495C35.2945 8.9795 35.6375 9.07262 35.9375 9.26977C36.0502 9.34834 36.1426 9.45965 36.2046 9.59205C36.2673 9.72518 36.2977 9.87432 36.2939 10.0256C36.2983 10.2141 36.2483 10.3996 36.1527 10.5524C36.0572 10.7073 35.9255 10.8288 35.773 10.903L35.7698 10.9037ZM31.7545 10.9037C31.9463 10.9554 32.1204 11.074 32.252 11.2442C32.3716 11.397 32.4356 11.5963 32.4305 11.8015C32.4324 12.0394 32.3564 12.2693 32.2178 12.4475C32.0558 12.6446 31.8539 12.793 31.6292 12.8774C31.3558 12.9866 31.0672 13.0389 30.7773 13.0339C30.5146 13.0339 30.2526 12.9997 29.9962 12.9313C29.7545 12.8622 29.5216 12.7567 29.3045 12.6177L29.5386 11.9288C29.7165 12.0423 29.9076 12.1274 30.1057 12.1812C30.3127 12.2394 30.5254 12.2693 30.7387 12.2693C30.9564 12.2823 31.1735 12.2343 31.3716 12.1274C31.4412 12.0932 31.5001 12.035 31.5419 11.9622C31.583 11.8895 31.6058 11.8044 31.6058 11.7171C31.6077 11.6451 31.5912 11.573 31.5602 11.5097C31.5286 11.4472 31.483 11.3955 31.4273 11.3606C31.2754 11.266 31.1026 11.2217 30.9298 11.2333H30.2595V10.6186H30.8653C31.0292 10.6295 31.1931 10.588 31.3381 10.4992C31.3925 10.468 31.4374 10.4207 31.4684 10.3617C31.5001 10.3028 31.5165 10.2352 31.5165 10.1653C31.5146 10.0918 31.4944 10.0198 31.4577 9.95944C31.4216 9.89905 31.3703 9.85177 31.3108 9.8234C31.133 9.73028 30.9374 9.68736 30.7425 9.69827C30.3652 9.707 29.9937 9.80521 29.6513 9.98708L29.4443 9.30469C29.8716 9.06825 30.3393 8.94385 30.814 8.94021C31.0817 8.93585 31.3482 8.98386 31.602 9.08135C31.8071 9.1541 31.9912 9.28796 32.1368 9.46838C32.2007 9.54258 32.2514 9.63061 32.2856 9.72736C32.3197 9.82412 32.3368 9.92816 32.3368 10.0322C32.3387 10.2199 32.2837 10.4032 32.1818 10.5509C32.0704 10.7088 31.9248 10.8303 31.7596 10.9037H31.7545ZM27.0595 12.3384C27.2468 12.3427 27.4316 12.2889 27.5943 12.1827C27.7487 12.0794 27.8677 11.9171 27.9291 11.7236V11.2726H27.1019C26.6373 11.2726 26.405 11.4486 26.405 11.7993C26.4018 11.8793 26.4164 11.9593 26.4474 12.0314C26.4784 12.1034 26.5253 12.1645 26.5829 12.2096C26.7265 12.3114 26.8943 12.358 27.0626 12.3427L27.0595 12.3384ZM27.1696 8.95476C27.6778 8.95476 28.0614 9.09444 28.3323 9.37671C28.6038 9.65971 28.7392 10.0758 28.7392 10.6389V12.9633H27.9759V12.4795C27.8715 12.6621 27.7228 12.804 27.5481 12.8891C27.3392 12.9837 27.1152 13.0295 26.8905 13.0222C26.6582 13.028 26.4272 12.9778 26.2126 12.8745C26.0316 12.7821 25.8746 12.6359 25.7594 12.4504C25.6563 12.2671 25.6018 12.0532 25.6044 11.8357C25.5993 11.6727 25.6278 11.5105 25.6873 11.3628C25.7468 11.2151 25.836 11.0849 25.9468 10.983C26.1848 10.7662 26.5487 10.6571 27.0379 10.6571H27.9297V10.5975C27.9367 10.4789 27.9202 10.3596 27.8823 10.2497C27.8443 10.1391 27.7861 10.0395 27.7101 9.95798C27.5285 9.79502 27.3 9.715 27.0702 9.73464C26.8753 9.73464 26.6816 9.76956 26.4961 9.8394C26.3246 9.90051 26.1645 9.998 26.0253 10.1282L25.7082 9.45382C25.9063 9.28213 26.1316 9.15628 26.3708 9.0828C26.6322 8.99841 26.9025 8.95622 27.1734 8.95767L27.1696 8.95476ZM23.2847 12.2198C23.4201 12.2263 23.5556 12.2009 23.6821 12.1441C23.8087 12.0866 23.9227 11.9993 24.0176 11.888C24.2049 11.6378 24.3087 11.3191 24.3087 10.9888C24.3087 10.6593 24.2056 10.3399 24.0176 10.0904C23.9233 9.97762 23.81 9.8896 23.6847 9.83067C23.5594 9.77175 23.4239 9.74483 23.2885 9.74992C23.1043 9.74628 22.9233 9.80012 22.7644 9.9056C22.6081 10.0053 22.4802 10.1544 22.3973 10.3363C22.3081 10.5385 22.2619 10.7619 22.2619 10.9888C22.2619 11.2158 22.3081 11.4392 22.3973 11.6421C22.4815 11.8247 22.6093 11.9768 22.7644 12.0801C22.9252 12.1783 23.1055 12.2278 23.2885 12.2241L23.2847 12.2198ZM23.3733 8.95476C23.6847 8.94967 23.9916 9.03624 24.2651 9.2072C24.529 9.37089 24.7461 9.61824 24.891 9.92016C25.0486 10.2461 25.129 10.6135 25.1227 10.9859C25.1284 11.3584 25.0505 11.7258 24.8961 12.0532C24.7512 12.3551 24.5341 12.6024 24.2701 12.7669C23.9967 12.9371 23.6897 13.0244 23.379 13.0186C23.172 13.0295 22.9657 12.9873 22.7745 12.8942C22.5834 12.8018 22.4125 12.6614 22.2751 12.4831V14.4059H21.4675V9.00132H22.2359V9.52148C22.3663 9.33597 22.5353 9.19047 22.7264 9.09735C22.9334 9.0035 23.1543 8.95622 23.3771 8.95767L23.3733 8.95476Z" fill="#2B3888"/>
<path d="M60.2271 16.1068C59.9404 16.1286 59.6562 16.0312 59.4265 15.8318C59.3316 15.7263 59.2575 15.5983 59.21 15.4564C59.1619 15.3146 59.141 15.1633 59.1486 15.0119H59.6835C59.6803 15.1683 59.7309 15.3204 59.8246 15.4339C59.936 15.5343 60.074 15.5896 60.2158 15.5896C60.3575 15.5896 60.4955 15.5343 60.6069 15.4339C60.6569 15.3793 60.6961 15.3138 60.7227 15.2411C60.7493 15.1691 60.7632 15.0905 60.762 15.0119H61.3183C61.3259 15.164 61.3037 15.316 61.2556 15.4572C61.2069 15.599 61.1316 15.7263 61.0354 15.8311C60.8037 16.0333 60.5164 16.1308 60.2271 16.1068ZM58.555 16.5739H59.3575V19.1871L61.2632 16.5739H62V20.5395H61.1917V17.9263L59.2929 20.5395H58.555V16.5739ZM54.0188 16.5739H54.8264V19.1871L56.7321 16.5739H57.4689V20.5395H56.6606V17.9263L54.7618 20.5395H54.0181L54.0188 16.5739ZM51.3744 19.796C51.5105 19.8018 51.6453 19.7742 51.7713 19.7152C51.8978 19.6563 52.0111 19.5683 52.1054 19.4555C52.2928 19.206 52.3966 18.8873 52.3966 18.557C52.3966 18.2268 52.2934 17.9081 52.1054 17.6586C52.0111 17.5458 51.8972 17.4578 51.7713 17.3989C51.6453 17.3399 51.5105 17.313 51.3744 17.3181C51.1909 17.3152 51.0105 17.3683 50.8523 17.4738C50.6959 17.5735 50.5674 17.7226 50.4826 17.9045C50.3934 18.1067 50.3472 18.3301 50.3472 18.557C50.3472 18.784 50.3934 19.0074 50.4826 19.2096C50.5687 19.3922 50.6959 19.5443 50.8523 19.6483C51.0124 19.748 51.1928 19.7989 51.3744 19.796ZM51.4656 16.531C51.777 16.5251 52.0839 16.6124 52.3573 16.7834C52.6206 16.9471 52.8384 17.1944 52.9846 17.4949C53.139 17.8201 53.2169 18.186 53.2112 18.5563C53.2162 18.9288 53.1384 19.2976 52.9846 19.6257C52.839 19.9269 52.6206 20.1743 52.3573 20.3387C52.0839 20.5097 51.777 20.5962 51.4656 20.5911C51.2586 20.6021 51.0516 20.5599 50.8605 20.4667C50.6693 20.3743 50.4984 20.2339 50.3598 20.0557V21.9785H49.551V16.5739H50.3193V17.0948C50.4497 16.9085 50.6181 16.763 50.8098 16.6699C51.0181 16.5753 51.2409 16.528 51.4656 16.531ZM46.9148 19.796C47.0515 19.8011 47.1876 19.7734 47.3142 19.7152C47.4408 19.6563 47.556 19.569 47.6515 19.4562C47.8389 19.2067 47.9427 18.8881 47.9427 18.5578C47.9427 18.2275 47.8395 17.9088 47.6515 17.6593C47.4528 17.4425 47.1895 17.321 46.9155 17.321C46.6414 17.321 46.3781 17.4418 46.1794 17.6593C45.9958 17.911 45.8958 18.2297 45.8958 18.5578C45.8958 18.8859 45.9964 19.2045 46.1794 19.4562C46.2743 19.569 46.3895 19.657 46.5167 19.7152C46.6427 19.7734 46.7781 19.8011 46.9148 19.796ZM46.9148 20.5911C46.5863 20.597 46.2616 20.5075 45.9718 20.3307C45.6983 20.1655 45.4705 19.9175 45.3135 19.6119C45.1559 19.2896 45.0755 18.9252 45.08 18.5563C45.0749 18.1897 45.1559 17.8288 45.3135 17.5109C45.4711 17.2053 45.6983 16.9558 45.9718 16.7899C46.2648 16.6197 46.5889 16.5317 46.9174 16.5317C47.2458 16.5317 47.5693 16.6197 47.8629 16.7899C48.1351 16.9551 48.3611 17.2053 48.5155 17.5109C48.6775 17.8274 48.7604 18.1889 48.7547 18.5563C48.7598 18.9266 48.6775 19.2911 48.5155 19.6119C48.3617 19.9175 48.1351 20.1677 47.8629 20.3307C47.5718 20.5082 47.2452 20.5977 46.9148 20.5911ZM44.9426 17.361H43.7356V20.5395H42.928V17.361H41.7134V16.5739H44.9426V17.361ZM37.6766 16.5739H38.4824V19.1871L40.3881 16.5739H41.1242V20.5395H40.3166V17.9263L38.4178 20.5395H37.6766V16.5739ZM35.031 19.796C35.1671 19.8018 35.3019 19.7742 35.4279 19.716C35.5538 19.6578 35.6677 19.5683 35.762 19.4555C35.9494 19.206 36.0526 18.8873 36.0526 18.557C36.0526 18.2268 35.9494 17.9081 35.762 17.6586C35.6677 17.5458 35.5538 17.4571 35.4279 17.3981C35.3019 17.3392 35.1671 17.3123 35.031 17.3181C34.8475 17.3152 34.6671 17.3683 34.5082 17.4738C34.3519 17.5735 34.2247 17.7226 34.1411 17.9045C34.0525 18.1067 34.0057 18.3301 34.0057 18.557C34.0057 18.784 34.0525 19.0074 34.1411 19.2096C34.2259 19.3922 34.3532 19.5443 34.5082 19.6483C34.669 19.748 34.8487 19.7989 35.031 19.796ZM35.1222 16.531C35.4336 16.5259 35.7399 16.6132 36.0139 16.7834C36.2766 16.9471 36.4937 17.1944 36.6393 17.4949C36.7943 17.8194 36.8722 18.186 36.8659 18.5563C36.8722 18.9295 36.7943 19.2984 36.6393 19.6257C36.4943 19.9269 36.2772 20.1743 36.0139 20.3387C35.7405 20.5089 35.4336 20.5962 35.1222 20.5911C34.9152 20.6021 34.7089 20.5599 34.5171 20.4675C34.3259 20.3751 34.1557 20.2347 34.0183 20.0564V21.9792H33.2101V16.5746H33.9785V17.0955C34.1088 16.9093 34.2778 16.7638 34.469 16.6706C34.6766 16.5761 34.8981 16.528 35.1222 16.531ZM30.5657 19.796C30.7012 19.8018 30.836 19.7742 30.9619 19.7152C31.0873 19.6563 31.2012 19.5683 31.2949 19.4555C31.4822 19.206 31.586 18.8873 31.586 18.557C31.586 18.2268 31.4828 17.9081 31.2949 17.6586C31.2005 17.5458 31.0873 17.4578 30.9619 17.3989C30.836 17.3399 30.7012 17.313 30.5657 17.3181C30.3822 17.3137 30.2018 17.3683 30.0436 17.4738C29.8872 17.5735 29.7594 17.7226 29.6746 17.9045C29.5853 18.1067 29.5385 18.3301 29.5385 18.557C29.5385 18.784 29.5853 19.0074 29.6746 19.2096C29.76 19.3922 29.8879 19.5443 30.0436 19.6483C30.2037 19.7487 30.3841 19.7996 30.5657 19.796ZM30.6575 16.531C30.9683 16.5251 31.2752 16.6124 31.5487 16.7834C31.812 16.9471 32.0297 17.1944 32.1765 17.4949C32.3297 17.8201 32.4069 18.186 32.4006 18.5563C32.4069 18.9288 32.3297 19.2976 32.1765 19.6257C32.0303 19.9269 31.8126 20.1743 31.5487 20.3387C31.2752 20.5097 30.9683 20.5962 30.6575 20.5911C30.4499 20.6021 30.2429 20.5599 30.0518 20.4675C29.8606 20.3751 29.6898 20.2347 29.5518 20.0564V21.9792H28.7435V16.5746H29.5119V17.0955C29.6423 16.9093 29.8119 16.763 30.0043 16.6706C30.2094 16.5775 30.4284 16.5302 30.6499 16.5317L30.6575 16.531ZM26.1175 17.273C25.8783 17.2635 25.6447 17.3574 25.4631 17.5356C25.2808 17.7139 25.1643 17.9649 25.1352 18.2384H27.0967C27.0707 17.9685 26.9587 17.7197 26.7808 17.5393C26.5967 17.3581 26.3599 17.2628 26.1175 17.273ZM27.8612 18.5789C27.8612 18.6443 27.8612 18.7346 27.8486 18.8539H25.1416C25.1821 19.1325 25.3143 19.3835 25.5112 19.553C25.7308 19.7269 25.9935 19.8149 26.2599 19.8047C26.4334 19.8113 26.6061 19.7763 26.7669 19.7021C26.9283 19.6279 27.0739 19.5166 27.196 19.374L27.6289 19.9458C27.4714 20.1612 27.2694 20.3263 27.0403 20.4274C26.7498 20.5504 26.4403 20.6057 26.1308 20.589C25.8213 20.5722 25.5175 20.4842 25.2378 20.3307C24.9599 20.1692 24.727 19.9197 24.5675 19.6119C24.4162 19.2896 24.3377 18.9303 24.3377 18.5643C24.3377 18.1984 24.4169 17.8383 24.5675 17.5167C24.7188 17.2112 24.9403 16.9587 25.208 16.7892C25.489 16.6146 25.8049 16.5251 26.1245 16.531C26.4359 16.5259 26.7435 16.6153 27.0163 16.7892C27.2796 16.9551 27.4948 17.2053 27.6353 17.5102C27.7903 17.8375 27.8688 18.2057 27.8612 18.5789ZM24.1966 17.361H22.982V20.5395H22.1744V17.361H20.9674V16.5739H24.1966V17.361Z" fill="#2B3888"/>
<path d="M0.346587 10.0452L4.8258 4.95711C4.90871 4.86399 5.01378 4.8007 5.12834 4.77597C5.2429 4.7505 5.36125 4.76433 5.46885 4.81453C5.57645 4.86545 5.66885 4.95057 5.73405 5.06042C5.79924 5.17027 5.83468 5.29976 5.83531 5.43217V16.5745C5.83531 16.6742 5.81569 16.7724 5.77835 16.8619C5.74101 16.9521 5.68594 17.0314 5.61822 17.0939C5.5505 17.1572 5.47138 17.2023 5.38657 17.2263C5.30176 17.2503 5.21315 17.2525 5.12707 17.2329C5.01188 17.2089 4.90618 17.1449 4.82453 17.0496L0.345321 11.9556C0.180127 11.7665 0.0680993 11.5264 0.0225287 11.2652C-0.0230419 11.0041 0.00100952 10.7334 0.090252 10.4875C0.15038 10.3239 0.237724 10.1754 0.348486 10.0503L0.346587 10.0452Z" fill="#FF6224"/>
<path d="M18.7806 10.0453L14.3014 4.95717C14.2178 4.86406 14.1128 4.80076 13.9989 4.77603C13.8843 4.75057 13.7659 4.76439 13.6583 4.81459C13.5507 4.86551 13.4583 4.95063 13.3931 5.06048C13.3279 5.17033 13.2925 5.29983 13.2919 5.43223V16.5746C13.2919 16.6742 13.3115 16.7724 13.3488 16.8619C13.3862 16.9521 13.4412 17.0314 13.509 17.094C13.5767 17.1573 13.6558 17.2024 13.7406 17.2264C13.8254 17.2504 13.914 17.2526 13.9995 17.2329C14.1147 17.2089 14.2204 17.1449 14.302 17.0496L18.7813 11.9557C18.9464 11.7665 19.0585 11.5265 19.104 11.2653C19.1496 11.0041 19.1262 10.7335 19.0363 10.4876C18.9768 10.3239 18.8882 10.1755 18.7775 10.0504L18.7806 10.0453Z" fill="#FF6224"/>
<path d="M9.56392 0.0134888C9.41012 0.0134888 9.25822 0.0484075 9.11581 0.116792C8.97404 0.185177 8.84555 0.284845 8.73669 0.409975L7.0607 2.35167C7.00627 2.41496 6.96323 2.4899 6.93285 2.5721C6.90374 2.65504 6.88855 2.74379 6.88918 2.83328V19.1816C6.88855 19.2704 6.90374 19.3592 6.93285 19.4406C6.96323 19.5228 7.00627 19.597 7.0607 19.6596L8.74049 21.6035C8.84935 21.7286 8.97783 21.829 9.11961 21.8967C9.26075 21.9643 9.41139 21.9992 9.56392 22C9.71583 21.9992 9.86709 21.9651 10.0076 21.8967C10.1494 21.829 10.2785 21.7293 10.3867 21.6035L12.0665 19.6596C12.1209 19.597 12.164 19.5228 12.1944 19.4406C12.2235 19.3584 12.2387 19.2704 12.238 19.1816V2.83328C12.2387 2.74379 12.2235 2.65504 12.1944 2.5721C12.164 2.4899 12.1209 2.41496 12.0665 2.35167L10.3905 0.409975C10.2817 0.284117 10.1532 0.18445 10.0114 0.116792C9.86899 0.0484075 9.71709 0.0134888 9.56392 0.0134888Z" fill="#FF6224"/>
</svg>
