<svg width="157" height="59" viewBox="0 0 157 59" fill="none" xmlns="http://www.w3.org/2000/svg">
<path d="M92.1266 22.8446C92.0968 23.599 92.0372 24.2026 91.9478 24.6703C91.8584 25.1381 91.6945 25.4851 91.471 25.7115H94.6298V21.7883H92.1564L92.1266 22.8295V22.8446ZM97.0883 25.7265V28.4727H95.6877V27.0242H90.726V28.4727H89.3254V25.7265H89.6234C90.0257 25.7115 90.3088 25.4399 90.4578 24.9419C90.6068 24.4289 90.7111 23.6895 90.7558 22.754L90.8452 20.5209H96.1347V25.7416H97.0883V25.7265ZM81.9797 20.5058H83.4846V23.1463H86.7179V20.5058H88.2228V27.0091H86.7179V24.444H83.4846V27.0091H81.9797V20.5058ZM77.0627 25.7869C77.614 25.7869 78.0759 25.6058 78.4335 25.2286C78.7911 24.8514 78.9699 24.3685 78.9699 23.7499C78.9699 23.1313 78.7911 22.6484 78.4335 22.2712C78.0759 21.894 77.614 21.7129 77.0627 21.7129C76.5114 21.7129 76.0495 21.894 75.6919 22.2712C75.3343 22.6484 75.1555 23.1313 75.1555 23.7499C75.1555 24.3685 75.3343 24.8514 75.6919 25.2286C76.0495 25.6058 76.5114 25.7869 77.0627 25.7869ZM77.0627 27.0845C76.4071 27.0845 75.826 26.9487 75.3045 26.6621C74.783 26.3754 74.3807 25.9831 74.0827 25.4851C73.7996 24.9721 73.6506 24.3987 73.6506 23.7499C73.6506 23.1011 73.7996 22.5428 74.0827 22.0298C74.3807 21.5318 74.783 21.1395 75.3045 20.8528C75.826 20.5661 76.4071 20.4303 77.0627 20.4303C77.7183 20.4303 78.3143 20.5661 78.8358 20.8528C79.3573 21.1395 79.7596 21.5318 80.0576 22.0298C80.3556 22.5277 80.5046 23.1011 80.5046 23.7499C80.5046 24.3987 80.3556 24.9721 80.0576 25.4851C79.7745 25.9831 79.3573 26.3754 78.8358 26.6621C78.3143 26.9487 77.7183 27.0845 77.0627 27.0845ZM63.9209 22.7239C63.9209 23.4632 64.1742 24.0366 64.6659 24.4591C65.1725 24.8665 65.9026 25.123 66.8413 25.1984V20.2493C64.8894 20.4002 63.9209 21.215 63.9209 22.7239ZM68.2866 25.1984C69.2551 25.123 69.9852 24.8816 70.4769 24.4742C70.9686 24.0517 71.2219 23.4632 71.2219 22.7239C71.2219 21.9845 70.9686 21.396 70.462 20.9886C69.9703 20.5812 69.2402 20.3398 68.2866 20.2644V25.2135V25.1984ZM72.7268 22.7239C72.7268 23.8404 72.3394 24.7307 71.5646 25.3795C70.7898 26.0283 69.7021 26.3754 68.2866 26.4357V27.3411H66.8413V26.4357C65.4258 26.3603 64.3232 25.9981 63.5484 25.3644C62.7736 24.7156 62.3862 23.8404 62.3862 22.7239C62.3862 21.6073 62.7736 20.717 63.5484 20.0833C64.3232 19.4345 65.4258 19.0724 66.8413 18.9969V18.1368H68.2866V18.9969C69.7021 19.0724 70.8047 19.4345 71.5646 20.0833C72.3394 20.7321 72.7268 21.6073 72.7268 22.7239Z" fill="#2B3888"/>
<path d="M117.963 34.2065C116.995 34.2065 116.503 34.5686 116.503 35.308C116.503 36.0473 116.965 36.4095 117.904 36.4095H119.498V34.2065H117.948H117.963ZM120.869 32.9239V39.4272H119.528V37.4657H117.829L116.518 39.4272H114.909L116.429 37.2544C115.967 37.0885 115.609 36.847 115.356 36.5151C115.117 36.168 114.998 35.7606 114.998 35.2627C114.998 34.5083 115.251 33.9349 115.773 33.5275C116.294 33.1201 117.01 32.9239 117.933 32.9239H120.884H120.869ZM106.997 32.9239H108.502V37.2092L112.048 32.9239H113.419V39.4272H111.914V35.142L108.382 39.4272H106.997V32.9239ZM105.909 34.2216H103.659V39.4423H102.154V34.2216H99.8895V32.9239H105.909V34.2216ZM92.3799 32.9239H93.8848V37.2092L97.431 32.9239H98.8018V39.4272H97.2969V35.142L93.7656 39.4272H92.3799V32.9239ZM88.0887 38.3257C88.9082 38.3257 89.3254 38.0541 89.3254 37.5109C89.3254 37.2243 89.236 37.013 89.0423 36.8772C88.8486 36.7263 88.5506 36.6509 88.1334 36.6509H86.3603V38.3257H88.0738H88.0887ZM86.3752 35.6399H87.9546C88.7294 35.6399 89.1168 35.3683 89.1168 34.8251C89.1168 34.2819 88.7294 34.0405 87.9546 34.0405H86.3752V35.655V35.6399ZM89.5936 36.0473C90.3833 36.2887 90.7856 36.8169 90.7856 37.6015C90.7856 38.1899 90.5621 38.6426 90.13 38.9595C89.6979 39.2763 89.0572 39.4272 88.2079 39.4272H84.9299V32.9239H88.0738C88.8635 32.9239 89.4744 33.0748 89.9214 33.3615C90.3684 33.6482 90.577 34.0707 90.577 34.5988C90.577 34.9307 90.4876 35.2174 90.3088 35.4589C90.1449 35.7003 89.9065 35.8964 89.5936 36.0322V36.0473ZM82.1138 36.0473C82.5161 36.168 82.829 36.3491 83.0376 36.6056C83.2611 36.8621 83.3803 37.1639 83.3803 37.526C83.3803 37.9183 83.2462 38.2805 82.978 38.5822C82.7098 38.884 82.3522 39.1255 81.8903 39.2914C81.4284 39.4574 80.892 39.5479 80.296 39.5479C79.8043 39.5479 79.3126 39.4876 78.8358 39.382C78.359 39.2613 77.9269 39.0953 77.5544 38.8689L77.9865 37.7373C78.2994 37.9183 78.657 38.0541 79.0444 38.1447C79.4318 38.2352 79.8341 38.2956 80.2215 38.2956C80.7281 38.2956 81.1155 38.2201 81.3986 38.0692C81.6817 37.9032 81.8307 37.692 81.8307 37.4053C81.8307 37.1488 81.7115 36.9527 81.488 36.8169C81.2645 36.6811 80.9665 36.6056 80.5642 36.6056H79.3126V35.5796H80.445C80.8175 35.5796 81.1155 35.5192 81.3241 35.3834C81.5476 35.2476 81.6519 35.0665 81.6519 34.8402C81.6519 34.6139 81.5178 34.4177 81.2645 34.2819C81.0112 34.1461 80.6536 34.0707 80.2066 34.0707C79.5659 34.0707 78.8805 34.2216 78.1802 34.5384L77.7928 33.4219C78.6421 33.0295 79.4914 32.8183 80.3407 32.8183C80.892 32.8183 81.3688 32.8937 81.8158 33.0446C82.2479 33.1955 82.5906 33.4068 82.829 33.6784C83.0823 33.95 83.2015 34.2517 83.2015 34.5988C83.2015 34.9157 83.1121 35.2023 82.9184 35.4589C82.7247 35.7003 82.4565 35.8964 82.1287 36.0322L82.1138 36.0473ZM73.3675 38.4163C73.74 38.4163 74.0827 38.3257 74.3658 38.1598C74.6638 37.9787 74.8724 37.7222 74.9916 37.4053V36.6509H73.442C72.5778 36.6509 72.1457 36.9376 72.1457 37.5109C72.1457 37.7825 72.25 38.0089 72.4735 38.1748C72.697 38.3408 72.995 38.4163 73.3824 38.4163H73.3675ZM73.5761 32.8636C74.5297 32.8636 75.2449 33.0899 75.7366 33.5577C76.2432 34.0103 76.4965 34.7044 76.4965 35.6248V39.4423H75.081V38.6577C74.9022 38.9444 74.634 39.1556 74.2913 39.3216C73.9486 39.4725 73.5463 39.5479 73.0695 39.5479C72.5927 39.5479 72.1606 39.4725 71.803 39.3065C71.4454 39.1405 71.1623 38.8991 70.9537 38.6124C70.76 38.3107 70.6706 37.9787 70.6706 37.6015C70.6706 37.013 70.8792 36.5453 71.3113 36.1982C71.7434 35.8361 72.4288 35.655 73.3377 35.655H74.9916V35.5645C74.9916 35.1118 74.8575 34.7648 74.5893 34.5233C74.3211 34.2819 73.9337 34.1612 73.3973 34.1612C73.0397 34.1612 72.6821 34.2216 72.3245 34.3272C71.9818 34.4479 71.6838 34.5988 71.4454 34.7949L70.8494 33.6935C71.1921 33.4369 71.5944 33.2408 72.0712 33.0899C72.548 32.9541 73.0397 32.8787 73.5761 32.8787V32.8636ZM66.3347 38.2201C66.886 38.2201 67.3479 38.039 67.6906 37.6618C68.0482 37.2846 68.227 36.8018 68.227 36.1831C68.227 35.5645 68.0482 35.0816 67.6906 34.7044C67.333 34.3272 66.886 34.1461 66.3347 34.1461C65.9771 34.1461 65.6493 34.2367 65.3662 34.4026C65.0831 34.5686 64.8447 34.7949 64.6808 35.1118C64.5169 35.4287 64.4275 35.7757 64.4275 36.1831C64.4275 36.5905 64.5169 36.9527 64.6808 37.2544C64.8447 37.5562 65.0831 37.7976 65.3662 37.9787C65.6493 38.1447 65.9771 38.2201 66.3347 38.2201ZM66.4986 32.8636C67.1244 32.8636 67.6757 32.9994 68.1674 33.271C68.6591 33.5426 69.0465 33.9349 69.3296 34.4479C69.6127 34.9458 69.7468 35.5343 69.7468 36.1831C69.7468 36.8319 69.6127 37.4204 69.3296 37.9334C69.0465 38.4314 68.6591 38.8237 68.1674 39.1104C67.6757 39.382 67.1244 39.5178 66.4986 39.5178C65.6344 39.5178 64.949 39.2311 64.4424 38.6426V41.7962H62.9375V32.9239H64.3679V33.784C64.6212 33.4822 64.9192 33.2408 65.2768 33.0899C65.6493 32.939 66.0516 32.8636 66.4986 32.8636Z" fill="#2B3888"/>
<path d="M135.113 44.5876C134.458 44.5876 133.966 44.4367 133.623 44.135C133.281 43.8332 133.117 43.3805 133.102 42.7921H134.1C134.1 43.0787 134.19 43.3202 134.368 43.4861C134.547 43.6521 134.786 43.7427 135.098 43.7427C135.411 43.7427 135.65 43.6521 135.814 43.4861C135.992 43.3202 136.097 43.0787 136.097 42.7921H137.125C137.125 43.3805 136.946 43.8181 136.588 44.135C136.246 44.4367 135.739 44.5876 135.098 44.5876H135.113ZM131.999 45.3572H133.504V49.6424L137.05 45.3572H138.421V51.8605H136.916V47.5752L133.385 51.8605H131.999V45.3572ZM123.551 45.3572H125.056V49.6424L128.602 45.3572H129.973V51.8605H128.468V47.5752L124.937 51.8605H123.551V45.3572ZM118.619 50.6383C119.17 50.6383 119.632 50.4572 119.975 50.08C120.333 49.7028 120.511 49.2199 120.511 48.6013C120.511 47.9826 120.333 47.4998 119.975 47.1226C119.617 46.7453 119.17 46.5643 118.619 46.5643C118.261 46.5643 117.934 46.6548 117.651 46.8208C117.367 46.9868 117.129 47.2131 116.965 47.53C116.801 47.8468 116.712 48.1939 116.712 48.6013C116.712 49.0087 116.801 49.3708 116.965 49.6726C117.129 49.9744 117.367 50.2158 117.651 50.3969C117.934 50.5628 118.261 50.6383 118.619 50.6383ZM118.783 45.2817C119.409 45.2817 119.96 45.4175 120.452 45.6891C120.943 45.9607 121.331 46.353 121.614 46.866C121.897 47.364 122.031 47.9524 122.031 48.6013C122.031 49.2501 121.897 49.8386 121.614 50.3516C121.331 50.8495 120.943 51.2418 120.452 51.5285C119.96 51.8001 119.409 51.9359 118.783 51.9359C117.919 51.9359 117.233 51.6492 116.727 51.0608V54.2143H115.222V45.3421H116.652V46.2021C116.906 45.9004 117.204 45.6589 117.561 45.5081C117.934 45.3572 118.336 45.2817 118.783 45.2817ZM110.305 50.6383C110.856 50.6383 111.318 50.4572 111.676 50.08C112.033 49.7028 112.212 49.2199 112.212 48.6013C112.212 47.9826 112.033 47.4998 111.676 47.1226C111.318 46.7453 110.856 46.5643 110.305 46.5643C109.754 46.5643 109.292 46.7453 108.934 47.1226C108.576 47.4998 108.398 47.9826 108.398 48.6013C108.398 49.2199 108.576 49.7028 108.934 50.08C109.292 50.4572 109.754 50.6383 110.305 50.6383ZM110.305 51.9359C109.649 51.9359 109.068 51.8001 108.547 51.5134C108.025 51.2267 107.623 50.8344 107.325 50.3365C107.042 49.8235 106.893 49.2501 106.893 48.6013C106.893 47.9524 107.042 47.3942 107.325 46.8811C107.623 46.3832 108.025 45.9909 108.547 45.7042C109.068 45.4175 109.649 45.2817 110.305 45.2817C110.96 45.2817 111.556 45.4175 112.078 45.7042C112.599 45.9909 113.002 46.3832 113.3 46.8811C113.598 47.3791 113.747 47.9524 113.747 48.6013C113.747 49.2501 113.598 49.8235 113.3 50.3365C113.017 50.8344 112.599 51.2267 112.078 51.5134C111.556 51.8001 110.96 51.9359 110.305 51.9359ZM106.639 46.6397H104.39V51.8605H102.885V46.6397H100.62V45.3421H106.639V46.6397ZM93.1102 45.3421H94.6151V49.6273L98.1613 45.3421H99.5321V51.8454H98.0272V47.5601L94.4959 51.8454H93.1102V45.3421ZM88.1783 50.6232C88.7296 50.6232 89.1915 50.4421 89.5342 50.0649C89.8918 49.6877 90.0706 49.2048 90.0706 48.5862C90.0706 47.9675 89.8918 47.4847 89.5342 47.1075C89.1766 46.7302 88.7296 46.5492 88.1783 46.5492C87.8207 46.5492 87.4929 46.6397 87.2098 46.8057C86.9267 46.9717 86.6883 47.198 86.5244 47.5149C86.3605 47.8317 86.2711 48.1788 86.2711 48.5862C86.2711 48.9936 86.3605 49.3557 86.5244 49.6575C86.6883 49.9593 86.9267 50.2007 87.2098 50.3818C87.4929 50.5477 87.8207 50.6232 88.1783 50.6232ZM88.3422 45.2666C88.968 45.2666 89.5193 45.4024 90.011 45.674C90.5027 45.9456 90.8901 46.3379 91.1732 46.851C91.4563 47.3489 91.5904 47.9374 91.5904 48.5862C91.5904 49.235 91.4563 49.8235 91.1732 50.3365C90.8901 50.8344 90.5027 51.2267 90.011 51.5134C89.5193 51.785 88.968 51.9208 88.3422 51.9208C87.478 51.9208 86.7926 51.6341 86.286 51.0457V54.1992H84.7811V45.327H86.2115V46.1871C86.4648 45.8853 86.7628 45.6439 87.1204 45.493C87.4929 45.3421 87.8952 45.2666 88.3422 45.2666ZM79.8492 50.6232C80.4005 50.6232 80.8624 50.4421 81.2051 50.0649C81.5627 49.6877 81.7415 49.2048 81.7415 48.5862C81.7415 47.9675 81.5627 47.4847 81.2051 47.1075C80.8475 46.7302 80.4005 46.5492 79.8492 46.5492C79.4916 46.5492 79.1638 46.6397 78.8807 46.8057C78.5976 46.9717 78.3592 47.198 78.1953 47.5149C78.0314 47.8317 77.942 48.1788 77.942 48.5862C77.942 48.9936 78.0314 49.3557 78.1953 49.6575C78.3592 49.9593 78.5976 50.2007 78.8807 50.3818C79.1638 50.5477 79.4916 50.6232 79.8492 50.6232ZM80.0131 45.2666C80.6389 45.2666 81.1902 45.4024 81.6819 45.674C82.1736 45.9456 82.561 46.3379 82.8441 46.851C83.1272 47.3489 83.2613 47.9374 83.2613 48.5862C83.2613 49.235 83.1272 49.8235 82.8441 50.3365C82.561 50.8344 82.1736 51.2267 81.6819 51.5134C81.1902 51.785 80.6389 51.9208 80.0131 51.9208C79.1489 51.9208 78.4635 51.6341 77.9569 51.0457V54.1992H76.452V45.327H77.8824V46.1871C78.1357 45.8853 78.4337 45.6439 78.7913 45.493C79.1638 45.3421 79.5661 45.2666 80.0131 45.2666ZM71.5648 46.4888C71.088 46.4888 70.6708 46.6397 70.343 46.9264C70.0152 47.2131 69.8066 47.5903 69.747 48.0732H73.3975C73.3379 47.6054 73.1442 47.2131 72.8015 46.9264C72.4737 46.6397 72.0565 46.4888 71.5797 46.4888H71.5648ZM74.813 48.6314C74.813 48.7371 74.813 48.888 74.7832 49.0841H69.747C69.8364 49.567 70.0599 49.9442 70.4324 50.2309C70.8049 50.5025 71.2817 50.6383 71.833 50.6383C72.5333 50.6383 73.1144 50.3968 73.5763 49.9291L74.3809 50.8646C74.0978 51.2116 73.7253 51.4832 73.2932 51.6492C72.8462 51.8303 72.3545 51.9208 71.8032 51.9208C71.1029 51.9208 70.4771 51.785 69.9407 51.4983C69.4043 51.2116 68.9871 50.8193 68.6891 50.3214C68.406 49.8084 68.257 49.235 68.257 48.5862C68.257 47.9374 68.3911 47.3791 68.6742 46.8811C68.9573 46.3681 69.3596 45.9758 69.8662 45.6891C70.3728 45.4024 70.939 45.2666 71.5797 45.2666C72.2204 45.2666 72.7568 45.4024 73.2485 45.6891C73.7402 45.9607 74.1276 46.353 74.4107 46.866C74.6938 47.364 74.8279 47.9525 74.8279 48.6164L74.813 48.6314ZM67.9888 46.6397H65.7389V51.8605H64.234V46.6397H61.9692V45.3421H67.9888V46.6397Z" fill="#2B3888"/>
<path d="M53.2823 34.7346L44.8787 26.2244C44.7297 26.0736 44.5211 25.9679 44.3125 25.9227C44.1039 25.8774 43.8804 25.9076 43.6718 25.983C43.4632 26.0736 43.2993 26.2094 43.1801 26.3904C43.0609 26.5715 42.9864 26.7978 42.9864 27.0091V45.6137C42.9864 45.84 43.046 46.0512 43.1801 46.2323C43.2993 46.4134 43.4781 46.5643 43.6718 46.6397C43.8804 46.7302 44.1039 46.7453 44.3125 46.7001C44.5211 46.6548 44.7297 46.5492 44.8787 46.3983L53.2823 37.8881C53.4909 37.6769 53.6548 37.4355 53.7591 37.1639C53.8634 36.8923 53.923 36.6056 53.923 36.3038C53.923 36.002 53.8634 35.7153 53.7591 35.4437C53.6399 35.1721 53.476 34.9307 53.2823 34.7195V34.7346ZM18.5355 37.9183L26.9391 46.4285C27.0881 46.5793 27.2967 46.685 27.5053 46.7302C27.7139 46.7755 27.9374 46.7453 28.146 46.6699C28.3546 46.5793 28.5185 46.4435 28.6377 46.2625C28.7569 46.0814 28.8314 45.8551 28.8314 45.6438V27.0392C28.8314 26.8129 28.7718 26.6017 28.6377 26.4206C28.5036 26.2395 28.3397 26.0886 28.146 26.0132C27.9523 25.9378 27.7139 25.9076 27.5053 25.9528C27.2967 25.9981 27.0881 26.1037 26.9391 26.2546L18.5355 34.7647C18.1183 35.1872 17.8799 35.7606 17.8799 36.3491C17.8799 36.9375 18.1183 37.5109 18.5206 37.9334L18.5355 37.9183ZM31.1409 21.9845L34.3444 18.7404C34.7616 18.3179 35.3278 18.0764 35.9089 18.0764C36.49 18.0764 37.0562 18.3179 37.4734 18.7404L40.662 21.9694C40.7663 22.075 40.8557 22.1957 40.9004 22.3315C40.96 22.4673 40.9898 22.6182 40.9898 22.7691V49.9291C40.9898 50.08 40.96 50.2158 40.9004 50.3667C40.8408 50.5175 40.7663 50.6232 40.662 50.7288L37.4734 53.9578C37.0562 54.3803 36.49 54.6217 35.9089 54.6217C35.3278 54.6217 34.7616 54.3803 34.3444 53.9578L31.1558 50.7137C31.0515 50.6081 30.977 50.4874 30.9174 50.3516C30.8578 50.2158 30.828 50.0649 30.828 49.9291V22.754C30.8131 22.6031 30.828 22.4522 30.9025 22.3164C30.9621 22.1806 31.0366 22.0599 31.1409 21.9543V21.9845Z" fill="#FF6224"/>
</svg>
