<svg width="97" height="96" viewBox="0 0 97 96" fill="none" xmlns="http://www.w3.org/2000/svg">
<path fill-rule="evenodd" clip-rule="evenodd" d="M14.5962 27.873C17.3968 24.7611 21.1894 23.1572 25.0233 23.1572C28.8573 23.1572 32.6498 24.7612 35.4505 27.873C36.9184 29.5039 38.8172 30.2714 40.6746 30.2714C42.532 30.2714 44.4308 29.5039 45.8987 27.873L45.9067 27.864L45.9148 27.8552C51.6306 21.5913 61.021 21.5913 66.7369 27.8552C69.6742 31.0742 74.2699 31.0769 77.21 27.8631C80.0098 24.7578 83.7984 23.1572 87.6283 23.1572V30.1572C85.7709 30.1572 83.8721 30.9247 82.4042 32.5557L82.3962 32.5646L82.3881 32.5735C76.6723 38.8374 67.2819 38.8374 61.5661 32.5735C58.6286 29.3543 54.0327 29.3518 51.0926 32.5659C48.2928 35.671 44.5044 37.2714 40.6746 37.2714C36.8406 37.2714 33.048 35.6675 30.2474 32.5557C28.7795 30.9247 26.8807 30.1572 25.0233 30.1572C23.1659 30.1572 21.2671 30.9247 19.7992 32.5557C16.9986 35.6675 13.206 37.2714 9.37207 37.2714V30.2714C11.2295 30.2714 13.1283 29.5039 14.5962 27.873ZM14.5962 45.6585C17.3968 42.5466 21.1894 40.9427 25.0233 40.9427C28.8573 40.9427 32.6498 42.5467 35.4505 45.6585C36.9184 47.2894 38.8172 48.0569 40.6746 48.0569C42.532 48.0569 44.4308 47.2894 45.8987 45.6585L45.9067 45.6495L45.9148 45.6407C51.6306 39.3768 61.021 39.3768 66.7369 45.6407C69.6742 48.8597 74.2699 48.8624 77.21 45.6486C80.0098 42.5433 83.7984 40.9427 87.6283 40.9427V47.9427C85.7709 47.9427 83.8721 48.7102 82.4042 50.3412L82.3962 50.3501L82.3881 50.359C76.6723 56.6229 67.2819 56.6229 61.5661 50.359C58.6286 47.1399 54.0327 47.1373 51.0926 50.3513C48.2929 53.4565 44.5044 55.0569 40.6746 55.0569C36.8406 55.0569 33.048 53.453 30.2474 50.3412C28.7795 48.7102 26.8807 47.9427 25.0233 47.9427C23.1659 47.9427 21.2671 48.7102 19.7992 50.3412C16.9986 53.453 13.206 55.0569 9.37207 55.0569V48.0569C11.2295 48.0569 13.1283 47.2894 14.5962 45.6585ZM45.9148 63.4262C51.6306 57.1623 61.021 57.1623 66.7369 63.4262C69.6742 66.6452 74.2699 66.6479 77.21 63.4341C80.0098 60.3288 83.7984 58.7282 87.6283 58.7282V65.7282C85.7709 65.7282 83.8721 66.4957 82.4042 68.1267L82.3962 68.1356L82.3881 68.1445C76.6723 74.4084 67.2819 74.4084 61.5661 68.1445C58.6286 64.9254 54.0327 64.9228 51.0926 68.1368C48.2929 71.242 44.5044 72.8424 40.6746 72.8424C36.8406 72.8424 33.048 71.2385 30.2474 68.1267C28.7795 66.4957 26.8807 65.7282 25.0233 65.7282C23.1659 65.7282 21.2671 66.4957 19.7992 68.1267C16.9986 71.2385 13.206 72.8424 9.37207 72.8424V65.8424C11.2295 65.8424 13.1283 65.075 14.5962 63.444C17.3968 60.3322 21.1894 58.7282 25.0233 58.7282C28.8573 58.7282 32.6498 60.3322 35.4505 63.444C36.9184 65.075 38.8172 65.8424 40.6746 65.8424C42.532 65.8424 44.4308 65.075 45.8987 63.444L45.9067 63.435L45.9148 63.4262Z" fill="#007BFB"/>
</svg>
