<?xml version="1.0" encoding="UTF-8"?>
<svg xmlns="http://www.w3.org/2000/svg" version="1.1" viewBox="0 0 1000 1000">
  <defs>
    <style>
      .cls-1 {
        stroke-width: 2.42px;
      }

      .cls-1, .cls-2, .cls-3, .cls-4, .cls-5, .cls-6, .cls-7, .cls-8, .cls-9, .cls-10, .cls-11, .cls-12 {
        stroke: #50545e;
        stroke-linecap: round;
        stroke-linejoin: round;
      }

      .cls-1, .cls-13 {
        fill: #50545e;
      }

      .cls-2 {
        stroke-dasharray: 0 0 20.19 20.19;
      }

      .cls-2, .cls-3, .cls-5, .cls-6, .cls-7, .cls-8, .cls-9, .cls-10, .cls-11, .cls-12 {
        fill: none;
      }

      .cls-2, .cls-4, .cls-6, .cls-7, .cls-10 {
        stroke-width: 1.22px;
      }

      .cls-3 {
        stroke-width: .31px;
      }

      .cls-4 {
        fill: #fff;
      }

      .cls-5 {
        stroke-dasharray: 0 0 0 0 0 0 12.59 12.59 12.59 12.59 12.59 12.59;
      }

      .cls-5, .cls-8, .cls-11 {
        stroke-width: .61px;
      }

      .cls-6 {
        stroke-dasharray: 0 0 22.47 22.47;
      }

      .cls-7 {
        stroke-dasharray: 0 0 20.68 20.68;
      }

      .cls-8 {
        stroke-dasharray: 0 0 0 0 12.59 12.59 12.59 12.59;
      }

      .cls-14, .cls-9 {
        opacity: .8;
      }

      .cls-9, .cls-12 {
        stroke-width: .61px;
      }

      .cls-13 {
        stroke-width: 0px;
      }
    </style>
  </defs>
  <g id="_Окна_двери" data-name="Окна, двери">
    <path class="cls-10" d="M441.62,121.39V.86s-102.32,1.23-115.41,121.75"/>
    <path class="cls-10" d="M489.24,269.37h-98.77s1.01,81.07,99.78,91.44"/>
    <g>
      <rect class="cls-10" x="358.59" y="829.29" width="60.41" height="282.26" transform="translate(1359.21 581.62) rotate(90)"/>
      <rect class="cls-10" x="384.18" y="845" width="9.28" height="282.21" transform="translate(1374.92 597.29) rotate(90)"/>
    </g>
  </g>
  <g id="_Пунктир" data-name="Пунктир">
    <g>
      <line class="cls-10" x1="324.06" y1="415.81" x2="334.96" y2="415.81"/>
      <line class="cls-2" x1="355.15" y1="415.81" x2="466.19" y2="415.81"/>
      <polyline class="cls-10" points="476.29 415.81 487.19 415.81 487.19 426.71"/>
      <line class="cls-7" x1="487.19" y1="447.39" x2="487.19" y2="726.61"/>
      <polyline class="cls-10" points="487.19 736.95 487.19 747.85 498.09 747.85"/>
      <line class="cls-6" x1="520.56" y1="747.85" x2="734.01" y2="747.85"/>
      <line class="cls-10" x1="745.25" y1="747.85" x2="756.15" y2="747.85"/>
    </g>
  </g>
  <g id="_Перегородки" data-name="Перегородки">
    <rect class="cls-13" x="604.35" y="215.72" width="157.09" height="9.28"/>
    <rect class="cls-13" x="486.18" y="465.11" width="129.77" height="13.77"/>
    <rect class="cls-13" x="486.18" y="365.79" width="14.5" height="113.1"/>
    <rect class="cls-13" x="486.18" y="204.84" width="13.77" height="63.8"/>
    <rect class="cls-13" x="604.35" y="203.39" width="9.42" height="21.75"/>
    <rect class="cls-13" x="731.95" y="220.79" width="5.8" height="228.37"/>
    <rect class="cls-13" x="497.06" y="444.09" width="240.69" height="5.07"/>
    <rect class="cls-13" x="732.67" y="321.57" width="25.37" height="8.7"/>
    <rect class="cls-13" x="739.2" y="462.75" width="22.47" height="11.9"/>
    <rect class="cls-13" x="737.75" y="518.03" width="20.3" height="13"/>
    <rect class="cls-13" x="236.07" y="415.09" width="86.27" height="10.87"/>
  </g>
  <g id="_Стандарт_2.5" data-name="Стандарт 2.5">
    <g class="cls-14">
      <rect class="cls-12" x="572.45" y="478.87" width="37.08" height="74.16"/>
      <circle class="cls-12" cx="590.99" cy="501.48" r="12.98"/>
      <circle class="cls-12" cx="590.99" cy="527.65" r="9.89"/>
      <g>
        <circle class="cls-12" cx="595.67" cy="541.12" r=".46"/>
        <circle class="cls-12" cx="586.3" cy="541.12" r=".46"/>
      </g>
      <rect class="cls-12" x="573.28" y="484.53" width="35.42" height="63.55"/>
    </g>
    <g class="cls-14">
      <ellipse class="cls-12" cx="727.28" cy="590.26" rx="5.38" ry="5.38"/>
      <circle class="cls-12" cx="746.73" cy="590.26" r="1.67"/>
      <rect class="cls-12" x="688.39" y="563.87" width="62.42" height="52.78" rx="1.23" ry="1.23"/>
      <rect class="cls-12" x="691.76" y="567.3" width="50.32" height="45.91" rx="3.69" ry="3.69"/>
      <rect class="cls-12" x="694.74" y="570.81" width="44.28" height="38.89" rx="2.95" ry="2.95"/>
      <ellipse class="cls-12" cx="727.28" cy="590.26" rx="7.01" ry="7.01"/>
      <rect class="cls-12" x="682.52" y="553.18" width="74.16" height="74.16" transform="translate(129.34 1309.86) rotate(-90)"/>
    </g>
    <g class="cls-14">
      <path class="cls-12" d="M700.66,422.22c-2.13-2.14-2.13-5.69,0-7.83,2.14-2.14,5.7-2.14,7.83,0,2.14,2.13,2.14,5.69,0,7.82-2.13,2.14-5.69,2.14-7.83,0Z"/>
      <rect class="cls-12" x="633.46" y="347.18" width="98.88" height="98.88" rx="1.13" ry="1.13"/>
      <path class="cls-12" d="M699.53,423.34c-2.75-2.75-2.75-7.33,0-10.07,2.76-2.75,7.34-2.75,10.08,0,2.75,2.74,2.75,7.32,0,10.07-2.74,2.76-7.32,2.76-10.08,0Z"/>
      <path class="cls-12" d="M649.39,433.5h49.79c.71-.1,1.39-.4,1.93-.95l17.72-17.72c.62-.62.94-1.43.98-2.25l-.03-49.47c0-1.86-1.51-3.38-3.38-3.38h-67.01c-1.86,0-3.38,1.51-3.38,3.38v67.01c0,1.86,1.51,3.38,3.38,3.38Z"/>
      <path class="cls-12" d="M643.06,436.46c2.58,2.58,5.77,2.64,6.37,2.64,16.83,0,33.66,0,50.49,0,.64-.09,1.52-.28,2.49-.71.89-.4,1.58-.87,2.06-1.27,6.07-6.08,12.15-12.16,18.22-18.24.44-.4,1.09-1.1,1.6-2.13.56-1.14.69-2.17.72-2.79.12-16.93.24-33.87.36-50.8,0-4.97-4.03-9-9-9h-66.94c-4.97,0-9,4.03-9,9v66.94c0,.6.06,3.79,2.64,6.37Z"/>
    </g>
    <g class="cls-14">
      <path class="cls-12" d="M597.58,412.07c-.03,1.66-.07,3.54-.69,5.88-.2.77-.91,3.44-2.34,5.41-2.62,3.6-7.1,3.93-14.66,4.86-3.63.45-6.58.43-8.75.43s-5.11,0-8.76-.43c-7.43-.86-12.1-1.33-14.66-4.86-1.4-1.93-2.1-4.52-2.31-5.3-.64-2.37-.69-4.29-.72-5.99-.05-3.33-.09-5.31.75-7.48,1.48-3.86,4.69-5.74,6.36-6.71,2.11-1.23,4.43-1.66,9.08-2.5,2.96-.54,6.42-.92,10.27-.92,1.06,0,5.04.03,10.27.92,4.47.76,6.7,1.15,8.99,2.46,1.39.79,4.92,2.76,6.44,6.76.83,2.18.8,4.17.75,7.48Z"/>
      <path class="cls-12" d="M573.9,419.91c0-1.51-1.23-2.74-2.75-2.74s-2.74,1.23-2.74,2.74,1.23,2.74,2.74,2.74,2.75-1.23,2.75-2.74Z"/>
      <path class="cls-12" d="M575.51,419.91c0-2.4-1.95-4.34-4.35-4.34s-4.34,1.94-4.34,4.34,1.95,4.34,4.34,4.34,4.35-1.94,4.35-4.34Z"/>
      <path class="cls-12" d="M537.18,444.2c2.81-.8,4.89-1.09,9.03-1.77,19.58-3.22,36.61-2.18,49.89,0,4.14.68,6.22.98,9.03,1.77"/>
      <path class="cls-12" d="M573.34,436.01c0-1.2-.98-2.18-2.18-2.18s-2.17.97-2.17,2.18.97,2.18,2.17,2.18,2.18-.97,2.18-2.18Z"/>
      <path class="cls-12" d="M605.14,417.01v27.19h-67.95v-27.19c-.09-3.41.18-11.75,5.92-18.46,7.79-9.11,20.26-8.76,28.06-8.72,7.8-.04,20.27-.39,28.06,8.72,5.74,6.71,6,15.05,5.92,18.46Z"/>
    </g>
    <g class="cls-14">
      <path class="cls-12" d="M731.93,297.58h-13.38c-3.42,0-6.21-2.8-6.21-6.23v-32.04c0-3.43,2.8-6.23,6.21-6.23h13.38v44.49Z"/>
      <ellipse class="cls-12" cx="716.96" cy="275.33" rx="1.68" ry="1.68"/>
      <line class="cls-12" x1="716.96" y1="278.27" x2="716.96" y2="277.01"/>
      <line class="cls-12" x1="716.96" y1="273.65" x2="716.96" y2="272.4"/>
      <line class="cls-12" x1="714.03" y1="275.33" x2="715.28" y2="275.33"/>
      <line class="cls-12" x1="718.64" y1="275.33" x2="719.89" y2="275.33"/>
      <line class="cls-12" x1="705.23" y1="286.84" x2="705.23" y2="286"/>
      <line class="cls-12" x1="705.23" y1="283.77" x2="705.23" y2="282.94"/>
      <line class="cls-12" x1="703.29" y1="284.89" x2="704.12" y2="284.89"/>
      <line class="cls-12" x1="706.34" y1="284.89" x2="707.17" y2="284.89"/>
      <circle class="cls-12" cx="705.23" cy="284.89" r="1.11"/>
      <circle class="cls-12" cx="705.23" cy="265.78" r="1.11"/>
      <line class="cls-12" x1="705.23" y1="267.72" x2="705.23" y2="266.89"/>
      <line class="cls-12" x1="705.23" y1="264.66" x2="705.23" y2="263.83"/>
      <line class="cls-12" x1="703.29" y1="265.78" x2="704.12" y2="265.78"/>
      <line class="cls-12" x1="706.34" y1="265.78" x2="707.17" y2="265.78"/>
      <path class="cls-12" d="M684.88,253.75c.86.06,1.57.13,2.03.18,8.48,1.61,16.96,3.22,25.44,4.84,0,5.52,0,11.04,0,16.56,0,5.52,0,11.04,0,16.56-8.48,1.61-16.96,3.22-25.44,4.84-.47.05-1.17.12-2.03.18-5.08.36-13.65.96-21.37-3.51-1.25-.72-3.76-2.2-6.15-5.03-1.44-1.7-5.14-6.2-5.14-12.87,0-.06,0-.11,0-.16,0-.05,0-.11,0-.16,0-6.67,3.71-11.17,5.14-12.87,2.4-2.83,4.91-4.31,6.15-5.03,7.72-4.47,16.29-3.87,21.37-3.51Z"/>
      <path class="cls-12" d="M683.76,257.99c2.5.37,5.29.81,8.16,2.87,3.54,2.54,4.98,5.95,5.43,7.06,1.23,3.03,1.23,5.61,1.23,7.41s0,4.38-1.23,7.41c-.45,1.11-1.89,4.52-5.43,7.06-2.87,2.06-5.66,2.5-8.16,2.87-3.18.47-11.51,1.68-19-3.44-1.87-1.28-5.8-4.01-7.43-9.26-.34-1.09-1.37-4.85,0-9.28,1.63-5.25,5.56-7.98,7.43-9.26,7.49-5.13,15.82-3.91,19-3.44Z"/>
      <path class="cls-12" d="M690.31,264.45c3.84,4.12,3.83,9.48,3.82,10.89.01,1.41.02,6.77-3.82,10.89-3.4,3.64-8.07,4.43-11.78,4.4-2.57.04-4.65-.33-5.47-.48-2.03-.36-6.01-1.25-9.51-4.38-1.42-1.27-5.45-4.87-5.47-10.39-.01-5.56,4.06-9.2,5.47-10.46,3.5-3.13,7.49-4.02,9.51-4.38.82-.15,2.9-.52,5.47-.48,3.71-.03,8.38.76,11.78,4.4Z"/>
      <path class="cls-12" d="M689.95,269.89c1.23.59,1.8,1.66,1.98,2.05v6.79c-.18.39-.75,1.47-1.98,2.05-1.02.48-1.95.38-2.61.29-2.23-.29-3.74-1.69-4.35-2.34v-6.79c.59-.64,2.04-2.01,4.23-2.33.7-.1,1.67-.23,2.74.28Z"/>
    </g>
  </g>
  <g id="_Мебель" data-name="Мебель">
    <g class="cls-14">
      <rect class="cls-12" x="502.27" y="207.59" width="74.16" height="55.62"/>
      <path class="cls-12" d="M560.98,235.41c0-11.95-9.68-21.63-21.63-21.63s-21.63,9.68-21.63,21.63,9.68,21.63,21.63,21.63,21.63-9.68,21.63-21.63"/>
      <path class="cls-12" d="M557.28,235.41c0-9.9-8.02-17.92-17.92-17.92s-17.92,8.02-17.92,17.92,8.02,17.92,17.92,17.92,17.92-8.02,17.92-17.92"/>
      <path class="cls-12" d="M557.28,235.4c-4.95-4.95-12.97-4.95-17.92,0h0c-4.95,4.95-12.97,4.95-17.92,0"/>
    </g>
    <g class="cls-14">
      <rect class="cls-12" x="485.74" y="479.02" width="74.16" height="74.16"/>
      <g>
        <line class="cls-12" x1="517.34" y1="521.57" x2="528.29" y2="510.63"/>
        <line class="cls-12" x1="517.34" y1="510.63" x2="528.29" y2="521.57"/>
        <line class="cls-12" x1="515.08" y1="516.1" x2="530.56" y2="516.1"/>
        <line class="cls-12" x1="522.82" y1="508.36" x2="522.82" y2="523.84"/>
      </g>
    </g>
    <g class="cls-14">
      <rect class="cls-12" x="258.13" y="750.62" width="7.97" height="148.32"/>
      <polygon class="cls-12" points="258.14 884.29 252.19 871.43 252.19 777.53 258.14 764.67 258.14 884.29"/>
      <rect class="cls-12" x="249.22" y="814.67" width="2.97" height="20.23"/>
    </g>
    <g class="cls-14">
      <rect class="cls-12" x="237.16" y="611.67" width="41.31" height="305.75"/>
      <line class="cls-12" x1="276.4" y1="611.67" x2="276.4" y2="917.42"/>
    </g>
    <g class="cls-14">
      <line class="cls-12" x1="252.43" y1="249.27" x2="297.54" y2="251.28"/>
      <line class="cls-12" x1="252.43" y1="275.09" x2="297.54" y2="277.1"/>
      <line class="cls-12" x1="252.43" y1="265.83" x2="297.54" y2="260.25"/>
      <line class="cls-12" x1="252.43" y1="294.31" x2="297.54" y2="288.73"/>
      <line class="cls-12" x1="297.54" y1="226.85" x2="252.43" y2="224.85"/>
      <line class="cls-12" x1="297.54" y1="205.78" x2="252.43" y2="211.36"/>
      <line class="cls-12" x1="297.54" y1="180.77" x2="252.43" y2="178.76"/>
      <line class="cls-12" x1="297.54" y1="159.7" x2="252.43" y2="165.28"/>
      <line class="cls-12" x1="297.54" y1="233.64" x2="252.43" y2="239.22"/>
      <line class="cls-12" x1="297.54" y1="190.71" x2="252.43" y2="196.29"/>
      <line class="cls-12" x1="274.98" y1="150.93" x2="274.98" y2="302.75"/>
      <rect class="cls-12" x="199.07" y="189.76" width="151.82" height="74.16" transform="translate(48.15 501.82) rotate(-90)"/>
    </g>
    <g class="cls-14">
      <rect class="cls-12" x="254.3" y="358.04" width="113.06" height="2.47" transform="translate(670.11 48.45) rotate(90)"/>
      <rect class="cls-12" x="217.22" y="323.44" width="113.06" height="71.68" transform="translate(633.03 85.53) rotate(90)"/>
    </g>
    <path class="cls-9" d="M671.2,784.87c0,13.65-11.07,24.72-24.72,24.72-13.65,0-24.72-11.07-24.72-24.72,0-13.65,11.07-24.72,24.72-24.72,13.65,0,24.72,11.07,24.72,24.72"/>
    <path class="cls-9" d="M668.11,784.87c0,11.95-9.68,21.63-21.63,21.63s-21.63-9.68-21.63-21.63c0-11.95,9.68-21.63,21.63-21.63s21.63,9.68,21.63,21.63"/>
    <path class="cls-9" d="M671.2,857.01c0,13.65-11.07,24.72-24.72,24.72-13.65,0-24.72-11.07-24.72-24.72,0-13.65,11.07-24.72,24.72-24.72,13.65,0,24.72,11.07,24.72,24.72"/>
    <path class="cls-9" d="M668.11,857.01c0,11.95-9.68,21.63-21.63,21.63-11.95,0-21.63-9.68-21.63-21.63,0-11.95,9.68-21.63,21.63-21.63,11.95,0,21.63,9.68,21.63,21.63"/>
    <g class="cls-14">
      <polyline class="cls-12" points="549.82 918.24 560.18 917.69 563.92 916.44 563.92 723.25 560.18 721.99 549.82 721.44 530.43 720.96 458.4 720.96 449.27 721.93 446.5 725.14 446.5 741.76 448.18 744.27 446.5 746 446.5 893.68 448.18 895.41 446.5 897.91 446.5 914.54 449.27 917.75 458.4 918.72 530.43 918.72 549.82 918.24"/>
      <polyline class="cls-12" points="463.67 893.94 456.1 894.96 450.45 896.89"/>
      <polyline class="cls-12" points="510.35 889.44 464.31 889.44 457.64 890.98 451.01 893.57 448.18 895.41"/>
      <polyline class="cls-12" points="559.81 914.93 556.46 908.37 549.05 899.71 551.39 908.43"/>
      <polyline class="cls-12" points="551.82 899.82 555.66 900.75 560.92 903.59"/>
      <line class="cls-12" x1="449.32" y1="819.15" x2="484.34" y2="819.15"/>
      <polyline class="cls-12" points="448.18 744.27 451.01 746.1 457.64 748.69 464.31 750.23 469.83 750.48 473.12 750.36 512.05 749.58"/>
      <polyline class="cls-12" points="556.57 743.63 560.29 743.38 561.84 743.75"/>
      <polyline class="cls-12" points="545 744.69 549.52 744.31 551.68 743.63 554.41 742.95 555.52 743.88 555.58 745.12 554.9 747.18 554.35 754.37 554.41 760.5"/>
      <polyline class="cls-12" points="556.07 818.75 557.67 819.57 561.33 819.31 563.29 818.28 563.92 816.48"/>
      <line class="cls-12" x1="552.87" y1="881.43" x2="547.6" y2="882.99"/>
      <polyline class="cls-12" points="545.96 891.24 549.38 886.86 553.17 884.85"/>
      <line class="cls-12" x1="549.05" y1="739.96" x2="551.39" y2="731.25"/>
      <line class="cls-12" x1="501.27" y1="739.96" x2="518.39" y2="739.96"/>
      <polyline class="cls-12" points="553.21 883.08 553.76 877.14 552.7 869.97 552.7 860.94"/>
      <polyline class="cls-12" points="547 739.96 549.05 739.96 556.46 731.32 559.81 724.75"/>
      <polyline class="cls-12" points="550.5 814.1 543.12 807.86 536.31 801.2"/>
      <polyline class="cls-12" points="560.92 736.08 555.66 738.93 551.82 739.86"/>
      <polyline class="cls-12" points="535.48 802.54 531.46 797.69 528 794.54"/>
      <polyline class="cls-12" points="553.17 886.62 553.11 893.42 553.52 895.23 554.76 895.69 558.74 895.74"/>
      <polyline class="cls-12" points="552.65 897.04 551.41 896.98 549.86 895.69 547.74 895.33"/>
      <polyline class="cls-12" points="562.6 833.04 561.85 825.53 561.19 821.96 560.22 820.92 554.05 819.51 546.92 820.03 539.71 819.44 536.44 818.47 525.6 818.8 517.78 821.08 513.39 822.31 512.33 824.3 512.33 827.71 511.48 832.15 511.26 837.17 511.59 841.78 510.94 846.8 510.84 852.8 511.16 857.82 510.84 863.18 511.1 868.17 512.63 881.23 512.07 887.24 512.07 890.64 513.12 892.63 517.52 893.86 523.9 894.54 536.74 894.68 541.17 896.41 548.04 897.77 554.05 898.08 560.06 897.03 563.92 895.48"/>
      <polyline class="cls-12" points="560.22 820.92 557.32 820.92 552.94 821.07"/>
      <polyline class="cls-12" points="515.27 821.79 513.63 819.72 512.42 815.67 512.32 809.11 511.46 804.67 511.25 799.64 511.57 795.04 510.93 790.01 510.82 784.02 511.14 778.99 510.82 773.64 511.12 767.93 511.19 763.04 512.05 756.21 512.05 746.17 513.11 744.19 517.5 742.95 523.88 742.27 535.58 742.14 545.81 742.77 551.16 742.45 555.23 741.27 560.15 741.38 563.92 742.77"/>
      <polyline class="cls-12" points="514.22 745.18 516.57 745.37 523.63 745.06 530.13 745.43"/>
      <polyline class="cls-12" points="516.2 853.33 515.02 851.32 513.14 843.32"/>
      <polyline class="cls-12" points="555.3 795.47 555.5 803.06 556.28 808.37 557.1 814.1 556.9 816.84"/>
      <polyline class="cls-12" points="538.74 821.74 541.79 822.18 545.88 822.04 547.81 821.07 549.97 821.37 550.71 823.16 550.71 825.6 550.04 830.88 550.86 838.53"/>
      <polyline class="cls-12" points="561.11 849.6 561.04 842.33 560.37 833.78 560.89 827.39 561.39 823.06"/>
      <polyline class="cls-12" points="561.19 852.13 561.04 858.89 561.56 864.55 562.45 867.59 562.13 870.79 562.4 876.37 562.45 881.43 563.02 885.76"/>
      <polyline class="cls-12" points="544.17 832.3 547.44 838.39 549.97 840.32"/>
      <polyline class="cls-12" points="544.47 824.71 546.55 824.19 548.78 822.64"/>
      <line class="cls-12" x1="447.83" y1="899.71" x2="539.35" y2="899.71"/>
      <polyline class="cls-12" points="563.92 801.5 562.91 786.59 562.53 777.89 562.78 755.88"/>
      <line class="cls-12" x1="450.39" y1="739.96" x2="490.4" y2="739.96"/>
      <polyline class="cls-12" points="551.19 761.86 548.15 758.77 545.43 754 542.21 751.77"/>
      <polyline class="cls-12" points="555.27 772.88 553.11 770.34 550.07 767.99"/>
      <polyline class="cls-12" points="512.87 787.97 513.94 784.97 516.18 781.76"/>
      <polyline class="cls-12" points="512.65 779.08 515.65 777.37 518.96 774.48 522.82 772.98"/>
      <polyline class="cls-12" points="530.62 836.94 535.16 840.29 542.68 842.33 545.88 844.11 549 846.26 550.71 846.78"/>
      <polyline class="cls-12" points="517.66 870.84 514.58 865.3 513.88 860.96 512.67 857.73"/>
      <polyline class="cls-12" points="545.96 816.94 542.6 816.06 537.86 811.62 533.62 807.08"/>
      <polyline class="cls-12" points="513.69 890.34 516.59 891.45 523.65 891.75"/>
      <g>
        <line class="cls-11" x1="446.46" y1="739.96" x2="440.46" y2="739.96"/>
        <line class="cls-8" x1="427.87" y1="739.96" x2="383.8" y2="739.96"/>
        <path class="cls-5" d="M377.5,739.96h-35.2c-3.91,0-7.08,2.32-7.08,5.17v149.51c0,2.86,3.17,5.17,7.08,5.17h91.87"/>
        <line class="cls-11" x1="440.46" y1="899.82" x2="446.46" y2="899.82"/>
      </g>
    </g>
    <g class="cls-14">
      <path class="cls-11" d="M278.44,467.1h7.42c1.71,0,3.09,1.38,3.09,3.09v1.23c0,1.71-1.39,3.09-3.09,3.09h-7.42c-1.71,0-3.09-1.38-3.09-3.09v-1.24c0-1.71,1.38-3.09,3.09-3.09Z"/>
      <circle class="cls-11" cx="285.72" cy="470.76" r=".53"/>
      <path class="cls-11" d="M252.07,528.47c-.06,0-.11,0-.15,0-.87,0-1.57-.7-1.57-1.57h0v-15.7c.02-.87.73-1.57,1.6-1.57.04,0,.08,0,.12,0"/>
      <polyline class="cls-11" points="264.93 510.24 270.52 510.54 271.38 510.6 272.18 510.69 272.18 510.69 272.85 510.81 272.85 510.81 273.34 510.93 273.34 510.93 273.61 511.06 273.61 511.06 273.63 511.19 273.63 526.94 273.61 527.06 273.61 527.06 273.34 527.19 272.85 527.32 272.18 527.43 271.38 527.53 270.52 527.59 264.93 527.88"/>
      <rect class="cls-11" x="254.55" y="490.12" width="6.52" height="57.88"/>
      <path class="cls-11" d="M268.17,515.95c-.65,0-1.17,1.4-1.17,3.12,0,1.72.53,3.12,1.17,3.12s1.17-1.4,1.17-3.12c0-1.72-.53-3.12-1.17-3.12"/>
      <path class="cls-11" d="M252.41,486.78c-.22.8-.34,1.64-.34,2.47,0,.1,0,.2,0,.3v59.02s0,.07,0,.1c0,.9.11,1.8.33,2.67.05.18.19.32.36.36h11.47c.17-.06.31-.2.35-.38.22-.8.34-1.63.34-2.46,0-.1,0-.2,0-.3v-59.02c0-.1,0-.2,0-.3,0-.83-.12-1.66-.34-2.46-.04-.18-.18-.32-.35-.37h-11.47c-.18.04-.32.18-.36.36Z"/>
      <rect class="cls-3" x="285.95" y="492.49" width="14.09" height="53.15"/>
      <rect class="cls-3" x="290.46" y="542.18" width="1.98" height="2.84"/>
      <rect class="cls-3" x="292.75" y="541.25" width="1.98" height="3.77"/>
      <polygon class="cls-3" points="290.46 513.64 292.44 513.64 292.44 512.7 294.73 512.7 294.73 511.59 290.46 511.59 290.46 513.64"/>
      <rect class="cls-3" x="295.04" y="542.42" width="1.98" height="2.6"/>
      <rect class="cls-3" x="295.04" y="511.59" width="1.98" height="4.64"/>
      <rect class="cls-3" x="297.32" y="541.83" width="2.29" height="3.19"/>
      <rect class="cls-3" x="297.32" y="538.86" width="2.29" height="2.66"/>
      <rect class="cls-3" x="297.32" y="535.36" width="2.29" height="3.19"/>
      <rect class="cls-3" x="297.32" y="521.24" width="2.29" height="13.81"/>
      <rect class="cls-3" x="297.32" y="517.74" width="2.29" height="3.19"/>
      <rect class="cls-3" x="297.32" y="515.09" width="2.29" height="2.35"/>
      <rect class="cls-3" x="297.32" y="511.59" width="2.29" height="3.19"/>
      <rect class="cls-3" x="297.64" y="508.23" width="1.97" height="2.04"/>
      <rect class="cls-3" x="297.64" y="505.88" width="1.97" height="2.04"/>
      <rect class="cls-3" x="297.64" y="503.53" width="1.97" height="2.04"/>
      <rect class="cls-3" x="295.35" y="505.88" width="1.98" height="2.04"/>
      <rect class="cls-3" x="297.32" y="497.81" width="2.29" height="4.4"/>
      <rect class="cls-3" x="297.32" y="495.46" width="2.29" height="2.04"/>
      <rect class="cls-3" x="295.04" y="493.11" width="4.57" height="2.04"/>
      <rect class="cls-3" x="292.75" y="493.11" width="1.98" height="2.04"/>
      <rect class="cls-3" x="290.46" y="493.11" width="1.98" height="2.04"/>
      <rect class="cls-3" x="288.17" y="493.11" width="1.98" height="2.04"/>
      <rect class="cls-3" x="295.04" y="500.17" width="1.97" height="2.04"/>
      <rect class="cls-3" x="295.04" y="497.81" width="1.97" height="2.04"/>
      <rect class="cls-3" x="295.04" y="495.46" width="1.97" height="2.04"/>
      <rect class="cls-3" x="292.75" y="500.17" width="1.98" height="2.04"/>
      <rect class="cls-3" x="292.75" y="497.81" width="1.98" height="2.04"/>
      <rect class="cls-3" x="292.75" y="495.46" width="1.98" height="2.04"/>
      <rect class="cls-3" x="290.46" y="500.17" width="1.98" height="2.04"/>
      <rect class="cls-3" x="290.46" y="503.53" width="1.98" height="2.04"/>
      <rect class="cls-3" x="290.46" y="505.88" width="1.98" height="2.04"/>
      <rect class="cls-3" x="290.46" y="508.23" width="1.98" height="2.04"/>
      <rect class="cls-3" x="288.18" y="503.53" width="1.97" height="2.04"/>
      <rect class="cls-3" x="288.18" y="505.88" width="1.97" height="2.04"/>
      <rect class="cls-3" x="288.18" y="508.23" width="1.97" height="2.04"/>
      <rect class="cls-3" x="288.18" y="519.44" width="1.97" height="2.04"/>
      <rect class="cls-3" x="288.18" y="521.8" width="1.97" height="2.04"/>
      <rect class="cls-3" x="288.18" y="524.15" width="1.97" height="2.04"/>
      <rect class="cls-3" x="288.18" y="511.59" width="1.97" height="2.84"/>
      <rect class="cls-3" x="288.18" y="514.74" width="1.97" height="2.04"/>
      <rect class="cls-3" x="288.18" y="517.09" width="1.97" height="2.04"/>
      <rect class="cls-3" x="288.18" y="531.21" width="1.97" height="2.04"/>
      <rect class="cls-3" x="288.18" y="533.56" width="1.97" height="2.04"/>
      <rect class="cls-3" x="288.18" y="535.91" width="1.97" height="2.04"/>
      <rect class="cls-3" x="288.18" y="538.27" width="1.97" height="2.04"/>
      <rect class="cls-3" x="288.18" y="540.62" width="1.97" height="2.04"/>
      <rect class="cls-3" x="288.18" y="542.97" width="1.97" height="2.04"/>
      <rect class="cls-3" x="288.18" y="526.5" width="1.97" height="2.04"/>
      <rect class="cls-3" x="288.18" y="528.86" width="1.97" height="2.04"/>
      <rect class="cls-3" x="290.47" y="518.65" width="1.97" height="2.04"/>
      <rect class="cls-3" x="290.47" y="521" width="1.97" height="2.04"/>
      <rect class="cls-3" x="290.47" y="523.36" width="1.97" height="2.04"/>
      <rect class="cls-3" x="290.47" y="513.94" width="1.97" height="2.04"/>
      <rect class="cls-3" x="290.47" y="516.3" width="1.97" height="2.04"/>
      <rect class="cls-3" x="290.47" y="530.42" width="1.97" height="2.04"/>
      <rect class="cls-3" x="290.47" y="532.77" width="1.97" height="2.04"/>
      <rect class="cls-3" x="290.47" y="535.12" width="1.97" height="2.04"/>
      <rect class="cls-3" x="290.47" y="537.48" width="1.97" height="2.04"/>
      <rect class="cls-3" x="290.47" y="539.83" width="1.97" height="2.04"/>
      <rect class="cls-3" x="290.47" y="525.71" width="1.97" height="2.04"/>
      <rect class="cls-3" x="290.47" y="528.06" width="1.97" height="2.04"/>
      <rect class="cls-3" x="292.75" y="517.71" width="1.97" height="2.04"/>
      <rect class="cls-3" x="292.75" y="520.07" width="1.97" height="2.04"/>
      <rect class="cls-3" x="292.75" y="522.42" width="1.97" height="2.04"/>
      <rect class="cls-3" x="292.75" y="513.01" width="1.97" height="2.04"/>
      <rect class="cls-3" x="292.75" y="515.36" width="1.97" height="2.04"/>
      <rect class="cls-3" x="292.75" y="529.48" width="1.97" height="2.04"/>
      <rect class="cls-3" x="292.75" y="531.83" width="1.97" height="2.04"/>
      <rect class="cls-3" x="292.75" y="534.19" width="1.97" height="2.04"/>
      <rect class="cls-3" x="292.75" y="536.54" width="1.97" height="2.04"/>
      <rect class="cls-3" x="292.75" y="538.89" width="1.97" height="2.04"/>
      <rect class="cls-3" x="292.75" y="524.77" width="1.97" height="2.04"/>
      <rect class="cls-3" x="292.75" y="527.13" width="1.97" height="2.04"/>
      <rect class="cls-3" x="295.04" y="518.89" width="1.97" height="2.04"/>
      <rect class="cls-3" x="295.04" y="521.24" width="1.97" height="2.04"/>
      <rect class="cls-3" x="295.04" y="523.6" width="1.97" height="2.04"/>
      <rect class="cls-3" x="295.04" y="516.54" width="1.97" height="2.04"/>
      <rect class="cls-3" x="295.04" y="530.66" width="1.97" height="2.04"/>
      <rect class="cls-3" x="295.04" y="533.01" width="1.97" height="2.04"/>
      <rect class="cls-3" x="295.04" y="535.36" width="1.97" height="2.04"/>
      <rect class="cls-3" x="295.04" y="537.72" width="1.97" height="2.04"/>
      <rect class="cls-3" x="295.04" y="540.07" width="1.97" height="2.04"/>
      <rect class="cls-3" x="295.04" y="525.95" width="1.97" height="2.04"/>
      <rect class="cls-3" x="295.04" y="528.3" width="1.97" height="2.04"/>
      <rect class="cls-3" x="286.57" y="503.53" width="1.29" height="2.04"/>
      <rect class="cls-3" x="286.57" y="505.88" width="1.29" height="2.04"/>
      <rect class="cls-3" x="286.57" y="508.23" width="1.29" height="2.04"/>
      <rect class="cls-3" x="286.57" y="511.59" width="1.29" height="2.1"/>
      <rect class="cls-3" x="286.57" y="514" width="1.29" height="2.1"/>
      <rect class="cls-3" x="286.57" y="516.42" width="1.29" height="2.1"/>
      <rect class="cls-3" x="286.57" y="518.81" width="1.29" height="2.1"/>
      <rect class="cls-3" x="286.57" y="521.22" width="1.29" height="2.1"/>
      <rect class="cls-3" x="286.57" y="523.63" width="1.29" height="2.1"/>
      <rect class="cls-3" x="286.57" y="526.06" width="1.29" height="2.1"/>
      <rect class="cls-3" x="286.57" y="528.47" width="1.29" height="2.1"/>
      <rect class="cls-3" x="286.57" y="530.88" width="1.29" height="2.1"/>
      <rect class="cls-3" x="286.57" y="533.27" width="1.29" height="2.1"/>
      <rect class="cls-3" x="286.57" y="535.68" width="1.29" height="2.1"/>
      <rect class="cls-3" x="286.57" y="538.1" width="1.29" height="2.1"/>
      <rect class="cls-3" x="286.57" y="540.51" width="1.29" height="2.1"/>
      <rect class="cls-3" x="286.57" y="542.92" width="1.29" height="2.1"/>
      <rect class="cls-3" x="290.46" y="497.81" width="1.98" height="2.04"/>
      <rect class="cls-3" x="290.46" y="495.46" width="1.98" height="2.04"/>
      <rect class="cls-3" x="288.17" y="500.17" width="1.98" height="2.04"/>
      <rect class="cls-3" x="288.17" y="497.81" width="1.98" height="2.04"/>
      <rect class="cls-3" x="288.17" y="495.46" width="1.98" height="2.04"/>
      <rect class="cls-3" x="286.57" y="500.17" width="1.29" height="2.04"/>
      <rect class="cls-3" x="286.57" y="497.81" width="1.29" height="2.04"/>
      <rect class="cls-3" x="286.57" y="495.46" width="1.29" height="2.04"/>
      <rect class="cls-3" x="286.57" y="493.11" width="1.29" height="2.04"/>
      <path class="cls-11" d="M352.43,493.34l1.58-1.58c.35-.4.54-.9.54-1.43,0-1.2-.98-2.18-2.18-2.18-.37,0-.73.09-1.05.28l-2.02,2.14"/>
      <path class="cls-11" d="M349.29,547.54l2.02,2.14c.32.18.68.27,1.05.27,1.2,0,2.18-.97,2.18-2.18,0-.52-.19-1.03-.54-1.43l-1.58-1.57"/>
      <path class="cls-11" d="M311.78,485.41l23.55-.95c7.42,1.27,14.15,5.15,18.98,10.94,4.91,6.91,7.54,15.18,7.54,23.65,0,8.48-2.63,16.74-7.54,23.65-4.83,5.78-11.56,9.66-18.98,10.94l-23.55-.95"/>
      <path class="cls-11" d="M329.68,490.77c-.62.5-1.03,1.21-1.17,2"/>
      <path class="cls-11" d="M327.18,544.48c-2.37,1.41-3.82,3.95-3.82,6.7,0,.67.09,1.34.26,1.99"/>
      <path class="cls-11" d="M341.25,544.25c1.75-1.02,3.36-2.26,4.79-3.69"/>
      <path class="cls-11" d="M328.79,546.22c.55,1.15,1.71,1.88,2.98,1.88.35,0,.69-.06,1.02-.16"/>
      <path class="cls-11" d="M341.71,494.14c-2.11-1.29-4.41-2.23-6.81-2.8"/>
      <path class="cls-11" d="M348.02,538.31c2.19-3.2,3.82-6.74,4.82-10.49"/>
      <path class="cls-11" d="M323.61,484.94c-.17.65-.26,1.32-.26,1.99,0,2.76,1.45,5.3,3.82,6.7"/>
      <path class="cls-11" d="M350.17,539.78c-4.51,5.94-11.36,9.64-18.8,10.16-1.84-.13-3.47-1.25-4.27-2.91-.13-.38-.2-.78-.2-1.17,0-1.56,1-2.94,2.49-3.42,9.68-3.71,16.06-13,16.06-23.36,0-10.36-6.38-19.65-16.07-23.36h0c-1.48-.49-2.49-1.87-2.49-3.43,0-.4.07-.79.2-1.17.8-1.67,2.43-2.78,4.27-2.92,7.44.52,14.29,4.22,18.8,10.16,4.18,6.11,6.42,13.33,6.42,20.73,0,7.4-2.24,14.63-6.42,20.73Z"/>
      <path class="cls-11" d="M311.78,555.31l20.81.83c.82,0,1.48-.66,1.48-1.48,0-.41-.17-.8-.47-1.08"/>
      <path class="cls-11" d="M333.6,484.54c.3-.28.47-.67.47-1.08,0-.81-.66-1.48-1.48-1.48l-20.81.83"/>
      <rect class="cls-11" x="237.62" y="426.36" width="74.16" height="185.39"/>
      <path class="cls-11" d="M260.85,592.11c1.64,1.64,3.88,2.57,6.21,2.57,4.84,0,8.78-3.92,8.78-8.78s-3.93-8.78-8.78-8.78c-4.85,0-8.78,3.93-8.78,8.78,0,2.04.71,4.02,2,5.59"/>
      <path class="cls-11" d="M269.6,585.91c0,1.41-1.14,2.55-2.54,2.55-1.4,0-2.54-1.14-2.54-2.55,0-1.4,1.14-2.54,2.54-2.54,1.4,0,2.54,1.14,2.54,2.54"/>
      <path class="cls-11" d="M245.73,599.81c7.11-2.97,13.66-7.12,19.38-12.28l.57.51c-5.85,5.4-12.61,9.73-19.95,12.8v-1.04Z"/>
      <polyline class="cls-11" points="250.63 597.53 250.63 594.15 244.52 594.15 244.52 604.71 250.63 604.71 250.63 598.57"/>
      <polyline class="cls-11" points="251.18 597.25 251.18 593.59 244.11 593.59 244.11 605.27 251.18 605.27 251.18 598.29"/>
    </g>
    <g class="cls-14">
      <g class="cls-14">
        <path class="cls-11" d="M395.09,791.23c19.8,0,35.85,16.05,35.85,35.84,0,19.8-16.05,35.84-35.85,35.84-19.8,0-35.84-16.05-35.84-35.84,0-19.8,16.05-35.84,35.84-35.84"/>
        <path class="cls-11" d="M395.09,790c20.48,0,37.08,16.6,37.08,37.08,0,20.48-16.6,37.08-37.08,37.08-20.48,0-37.08-16.6-37.08-37.08,0-20.48,16.6-37.08,37.08-37.08"/>
        <path class="cls-11" d="M363.64,841.2c1.96,4.38,4.82,8.29,8.38,11.5"/>
        <path class="cls-11" d="M420.33,803.6c-6.52-7.01-15.67-10.99-25.24-10.99-4.09,0-8.15.73-11.99,2.15"/>
      </g>
      <g class="cls-14">
        <polyline class="cls-11" points="390.84 817.99 391.15 815.34 390.77 815.04 389.76 814.9 389.17 815.16 388.8 817.57"/>
        <polyline class="cls-11" points="379 831.14 375.26 829.07 375.77 828.58 375.8 828.09 377.69 824.6"/>
        <polyline class="cls-11" points="398.51 817.84 411.41 824.77 401.97 842.51 401.5 842.92 401.23 843.46 379.58 831.47"/>
        <polyline class="cls-11" points="384.27 830.36 378.98 831.61 379.02 830.46 375.77 816.21 397.03 811.27 400.25 825.55 400.15 825.99 400.42 826.54 396.27 827.52"/>
        <polyline class="cls-11" points="389.53 813.01 385.22 810.69 383.16 814.49"/>
        <polyline class="cls-11" points="378.42 815.59 378.45 811.96 384.53 811.96"/>
        <line class="cls-11" x1="394.05" y1="811.96" x2="387.58" y2="811.96"/>
        <polyline class="cls-11" points="402.61 841.32 414.92 841.46 414.92 811.96 397.19 811.96"/>
        <polyline class="cls-11" points="378.33 830.77 378.26 841.04 397.25 841.26"/>
        <line class="cls-11" x1="401.25" y1="842.12" x2="382.82" y2="832"/>
        <polyline class="cls-11" points="394.34 835.85 394.97 835.73 395.31 836.7 395.71 836.19"/>
        <line class="cls-11" x1="396.28" y1="835.39" x2="395.03" y2="834.88"/>
        <line class="cls-11" x1="395.57" y1="835.11" x2="395.88" y2="834.54"/>
        <line class="cls-11" x1="396.73" y1="834.71" x2="395.42" y2="834.03"/>
        <polyline class="cls-11" points="396.05 832.49 395.77 833.12 397.07 833.86"/>
        <line class="cls-11" x1="397.13" y1="832.89" x2="396.7" y2="833.65"/>
        <polyline class="cls-11" points="397.93 831.62 396.73 830.93 397.08 830.25 398.1 830.42 398.21 831.27"/>
        <polyline class="cls-11" points="397.59 828.68 397.42 829.34 398.78 830.14"/>
        <line class="cls-11" x1="398.22" y1="829.81" x2="398.55" y2="829.34"/>
        <polyline class="cls-11" points="383.08 839.98 383.08 838.59 379.42 838.59 379.42 839.48"/>
        <polyline class="cls-11" points="413.32 836.9 412.04 837 411.08 837.76 409.9 836.44 408.55 836.61 407.46 837.82 407.46 839.83 414.08 839.83"/>
        <line class="cls-11" x1="407.46" y1="836.01" x2="407.46" y2="834.6"/>
        <polyline class="cls-11" points="408.09 832.3 414.41 834.01 407.46 835.62"/>
        <line class="cls-11" x1="414.34" y1="827.16" x2="410.33" y2="828.71"/>
        <polyline class="cls-11" points="407.56 817.48 407.56 818.14 414.24 819.89"/>
        <line class="cls-11" x1="414.28" y1="816.27" x2="407.73" y2="816.27"/>
        <polyline class="cls-11" points="411.24 816.27 411.08 814.82 410.36 814.29 408.78 814.13 407.89 814.06 407.66 813.34 407.89 812.91"/>
        <line class="cls-11" x1="403.71" y1="817.29" x2="403.71" y2="813.04"/>
        <line class="cls-11" x1="403.05" y1="812.98" x2="403.05" y2="817.81"/>
        <line class="cls-11" x1="399.63" y1="816.5" x2="399.63" y2="812.94"/>
        <line class="cls-11" x1="414.24" y1="823.87" x2="411.86" y2="823.25"/>
        <line class="cls-11" x1="410.13" y1="818.81" x2="410.13" y2="820.94"/>
        <polyline class="cls-11" points="398.89 827.42 399.14 828.49 399.97 828.05"/>
        <polyline class="cls-11" points="402.24 823.55 400.94 823.04 401.85 824.19 400.94 823.91"/>
        <line class="cls-11" x1="414.15" y1="830.75" x2="413.03" y2="830.75"/>
        <line class="cls-11" x1="376.54" y1="828.39" x2="377.91" y2="829.21"/>
        <path class="cls-11" d="M388.8,817.57c2.86,0,5.17,2.31,5.17,5.17,0,2.86-2.31,5.17-5.17,5.17-2.86,0-5.17-2.31-5.17-5.17,0-2.85,2.31-5.17,5.17-5.17"/>
        <path class="cls-11" d="M385.23,821.33c-.18.45-.27.92-.27,1.4,0,1.39.75,2.67,1.97,3.35"/>
        <path class="cls-11" d="M388.8,813.87c4.9,0,8.87,3.97,8.87,8.87,0,4.9-3.97,8.87-8.87,8.87-4.9,0-8.87-3.97-8.87-8.87,0-4.9,3.97-8.87,8.87-8.87"/>
        <path class="cls-11" d="M381.56,819.93c-.35.9-.53,1.85-.53,2.81,0,.34.02.68.07,1.01"/>
      </g>
    </g>
    <g class="cls-14">
      <line class="cls-11" x1="721.97" y1="804.31" x2="721.75" y2="803.03"/>
      <polyline class="cls-11" points="734.06 789.29 733.19 788.58 732.63 788.31 732.58 787.93 730.84 785.97 729.94 784.39 729.56 784.18 728.33 782.82 727.13 781.58 726.2 779.88 722.96 778.8 721.46 778.35 720.11 778.34"/>
      <polyline class="cls-11" points="726.88 776.43 724.94 776.67 723.58 776.93 721.94 777.03 720.7 777.5 719.82 777.45"/>
      <polyline class="cls-11" points="727.93 771.56 725.75 772.36 724.74 773.25 723.38 774.31 722.49 775.43 721.43 775.61 720.63 776.35 719.84 776.39"/>
      <polyline class="cls-11" points="718.97 778.55 716.88 778.84 713.34 779.55 712.99 779.72 712.65 779.5 711.73 779.48 711.32 779.59 710.89 779.36 710.72 778.99 708.43 778.03 707.26 777.62 706.43 777.62 705.49 777.53 704.48 777.09 704.78 776.85 704.75 776.64 705.31 776.59 706.28 776.53 707.32 776.88 707.76 776.85 708.62 777.35 710.6 778.45 712.05 778.77 713.5 778.74 716.01 778.27 718.85 777.93"/>
      <polyline class="cls-11" points="718.84 777.12 718.08 776.47 717.12 774.68 716 772.45 715.31 771.27 714.9 768.73 715.25 766.7 715.32 768.73 716 770.57 717.77 773.3 719.35 775.25"/>
      <polyline class="cls-11" points="718.08 776.47 716.71 775.95 714.62 774.92 711.96 773.89 709.55 773.4 706.32 773.22 703.84 773.4 703.41 774.76 703.48 776.84 704.19 779.82 704.87 782.83 705.58 784.57 705.72 786.13 706.25 786.95 706.82 787.34 706.92 788.16 710.58 787.8 712.21 787.06 713.38 786.24 715.44 785.67 717.67 784.54 719.39 783.07"/>
      <polyline class="cls-11" points="720.47 780.93 722.13 782.56 723.16 784.3 724.23 786.68"/>
      <line class="cls-11" x1="720.85" y1="782.73" x2="722.7" y2="783.51"/>
      <polyline class="cls-11" points="720.06 775.51 720.69 774.83 721.53 773.69 723.18 772.91 725.15 771.35 727.3 770.79 729.42 770.17 731.98 769.78 733.65 769.8 733.95 771.28 734.81 775.41 735.04 777.26 734.99 779.34 734.4 782.76 734.4 785.19 733.33 785.33 731.2 785.04 728.36 785.1 726.47 784.78 725.43 784.88 723.96 783.97"/>
      <polyline class="cls-11" points="729.94 784.39 730 783.7 728.82 782.72 728.87 782.46 727.92 781.79 727.41 780.52 729.64 781.3 730.24 781.11 730.51 780.54 729.43 780.53 727.29 779.77 722.12 777.88 723.58 776.93"/>
      <line class="cls-11" x1="730.24" y1="781.11" x2="732.28" y2="781.08"/>
      <path class="cls-11" d="M706.75,770.46c3.25-4.82,8.69-7.72,14.51-7.72,9.67,0,17.5,7.84,17.5,17.5,0,9.67-7.84,17.5-17.5,17.5-7.81,0-14.68-5.18-16.83-12.7"/>
      <path class="cls-11" d="M732.56,785.23c-1.97,4.48-6.41,7.37-11.3,7.37-3.96,0-7.68-1.9-10-5.11"/>
      <path class="cls-11" d="M726.69,784.81c-1.35,1.6-3.34,2.53-5.43,2.53-1.88,0-3.68-.75-5.02-2.08"/>
      <path class="cls-11" d="M718.21,773.84c.95-.45,1.99-.69,3.05-.69.37,0,.74.03,1.11.09"/>
      <path class="cls-11" d="M718.62,772.12c.85-.28,1.74-.42,2.64-.42.3,0,.6.02.9.05"/>
      <path class="cls-11" d="M720.95,786.02c-1.27-.07-2.49-.56-3.46-1.39"/>
      <path class="cls-11" d="M722.62,791.53c-.45.05-.91.08-1.37.08-1.78,0-3.54-.42-5.13-1.22"/>
      <path class="cls-11" d="M712.61,771.43c2.31-2.27,5.42-3.54,8.65-3.54,2.68,0,5.29.87,7.43,2.49"/>
      <polygon class="cls-11" points="720.06 775.51 719.74 775.22 719.35 775.25 719.03 775.65 718.84 776.54 718.85 777.93 719.11 779.23 719.11 781.29 719.18 782.61 719.39 783.07 720.06 783.02 720.85 782.73 720.68 782.3 720.49 781.65 720.46 780.01 720.34 778.85 720.11 778.34 719.82 777.45 719.84 776.12 720.06 775.51"/>
      <polyline class="cls-11" points="724.23 787.92 724.23 786.68 724.3 784.9 723.91 783.84 722.88 781.53 721.64 780.15 720.37 779.21"/>
      <polyline class="cls-11" points="732.49 787.82 733.32 787.92 735.13 788.63"/>
      <line class="cls-11" x1="726.49" y1="775.8" x2="725.73" y2="776.57"/>
      <polyline class="cls-11" points="710.08 776.73 711.64 776.52 713.66 776.87 715.51 777.62 717.75 778.06"/>
      <polyline class="cls-11" points="704.86 773.32 705.26 771.35 706.23 770.38 707.81 770.63 709.65 771.09 711.85 771.09 713.33 771.76 715.17 773.19 716.97 774.38"/>
      <polyline class="cls-11" points="703.61 777.37 703.31 779.25 703.31 782.16 703.85 784.71 704.95 785.36 705.65 785.35"/>
      <polyline class="cls-11" points="732.43 756.31 726.05 756.3 725.15 756.59 724.37 757.27 708.58 757.1 708.21 757.43 708.21 757.9 708.52 758.38 724.33 758.31 725.02 759.11 726.61 759.3 727.85 759.11 732.43 758.62"/>
      <line class="cls-11" x1="732.43" y1="757.16" x2="728.14" y2="757.38"/>
      <line class="cls-11" x1="732.47" y1="757.87" x2="728.1" y2="758.16"/>
      <polyline class="cls-11" points="729.01 758.99 728.1 758.16 728.14 757.38 728.78 756.31"/>
      <polygon class="cls-11" points="734.77 804.3 734.4 803.72 733.18 803.07 731.65 802.71 728.1 802.46 723.63 802.53 722.39 802.89 721.75 803.03 708.73 802.92 708.13 803.56 708.2 804.17 708.59 804.63 721.97 804.31 722.51 804.48 734.56 804.67 734.77 804.3"/>
      <polygon class="cls-11" points="708.7 809.26 708.38 808.58 708.56 807.76 709.47 807.67 716.91 808.31 718.91 808.49 721.13 808.31 721.72 807.76 722.31 807.08 723.99 806.81 725.76 807.22 727.31 808.04 727.76 808.76 727.76 809.58 727.13 810.35 725.95 810.71 724.4 810.9 722.86 810.67 722.04 810.03 721.31 809.08 709.74 809.35 708.7 809.26"/>
      <polyline class="cls-11" points="722.12 808.74 722.61 808.15 723.43 807.66"/>
      <path class="cls-11" d="M744.52,799.31c2.2,0,3.99-1.79,3.99-3.99,0-2.2-1.78-3.99-3.99-3.99s-3.99,1.79-3.99,3.99c0,2.2,1.79,3.99,3.99,3.99"/>
      <path class="cls-11" d="M744.52,801.14c3.22,0,5.83-2.61,5.83-5.82,0-3.22-2.61-5.82-5.83-5.82s-5.82,2.61-5.82,5.82c0,3.22,2.61,5.82,5.82,5.82"/>
      <path class="cls-11" d="M746.97,796.65c-.49.9-1.43,1.46-2.45,1.46-1.38,0-2.56-1.01-2.76-2.38"/>
      <path class="cls-11" d="M740.64,792.36c.92-1.21,2.36-1.92,3.88-1.92"/>
    </g>
    <g class="cls-14">
      <line class="cls-11" x1="722.01" y1="874.06" x2="721.8" y2="872.78"/>
      <polyline class="cls-11" points="734.11 859.04 733.24 858.32 732.67 858.06 732.63 857.68 730.88 855.72 729.99 854.14 729.61 853.93 728.37 852.57 727.18 851.33 726.24 849.63 723 848.55 721.5 848.1 720.16 848.09"/>
      <polyline class="cls-11" points="726.92 846.18 724.98 846.42 723.63 846.68 721.98 846.78 720.75 847.25 719.87 847.2"/>
      <polyline class="cls-11" points="727.98 841.31 725.79 842.11 724.79 843 723.43 844.06 722.54 845.18 721.48 845.36 720.68 846.1 719.88 846.14"/>
      <polyline class="cls-11" points="719.02 848.29 716.93 848.58 713.38 849.29 713.04 849.47 712.7 849.25 711.77 849.23 711.36 849.33 710.94 849.11 710.77 848.74 708.47 847.78 707.3 847.37 706.48 847.37 705.53 847.28 704.53 846.84 704.82 846.6 704.79 846.39 705.35 846.33 706.33 846.27 707.36 846.63 707.81 846.6 708.66 847.1 710.65 848.2 712.09 848.52 713.54 848.49 716.06 848.02 718.9 847.67"/>
      <polyline class="cls-11" points="718.89 846.87 718.12 846.21 717.16 844.43 716.05 842.2 715.36 841.02 714.94 838.47 715.3 836.45 715.37 838.47 716.04 840.32 717.82 843.05 719.4 845"/>
      <polyline class="cls-11" points="718.12 846.21 716.76 845.7 714.67 844.67 712.01 843.64 709.59 843.15 706.37 842.97 703.88 843.15 703.46 844.5 703.53 846.59 704.24 849.57 704.91 852.58 705.62 854.32 705.76 855.88 706.29 856.7 706.86 857.09 706.97 857.9 710.62 857.55 712.26 856.8 713.43 855.99 715.48 855.42 717.72 854.29 719.43 852.82"/>
      <polyline class="cls-11" points="720.52 850.68 722.18 852.31 723.21 854.05 724.27 856.42"/>
      <line class="cls-11" x1="720.89" y1="852.47" x2="722.74" y2="853.26"/>
      <polyline class="cls-11" points="720.11 845.26 720.74 844.58 721.58 843.44 723.23 842.65 725.2 841.1 727.34 840.54 729.46 839.92 732.02 839.53 733.7 839.55 733.99 841.03 734.86 845.16 735.08 847.01 735.04 849.08 734.45 852.51 734.45 854.94 733.38 855.08 731.24 854.79 728.41 854.85 726.52 854.52 725.47 854.63 724 853.72"/>
      <polyline class="cls-11" points="729.99 854.14 730.04 853.45 728.86 852.46 728.92 852.21 727.96 851.54 727.45 850.27 729.69 851.05 730.29 850.85 730.56 850.28 729.47 850.27 727.34 849.51 722.16 847.63 723.63 846.68"/>
      <line class="cls-11" x1="730.29" y1="850.85" x2="732.33" y2="850.82"/>
      <path class="cls-11" d="M706.79,840.21c3.25-4.82,8.69-7.72,14.51-7.72,9.67,0,17.5,7.84,17.5,17.5s-7.84,17.5-17.5,17.5c-7.81,0-14.68-5.18-16.83-12.7"/>
      <path class="cls-11" d="M732.61,854.98c-1.97,4.48-6.41,7.37-11.3,7.37-3.96,0-7.68-1.9-10-5.11"/>
      <path class="cls-11" d="M726.73,854.56c-1.35,1.6-3.34,2.53-5.43,2.53-1.88,0-3.68-.75-5.02-2.08"/>
      <path class="cls-11" d="M718.25,843.59c.95-.45,1.99-.69,3.05-.69.37,0,.74.03,1.11.09"/>
      <path class="cls-11" d="M718.66,841.87c.85-.28,1.74-.42,2.64-.42.3,0,.6.02.9.05"/>
      <path class="cls-11" d="M721,855.77c-1.27-.07-2.49-.56-3.46-1.39"/>
      <path class="cls-11" d="M722.67,861.28c-.45.05-.91.08-1.37.08-1.78,0-3.54-.42-5.13-1.22"/>
      <path class="cls-11" d="M712.65,841.18c2.31-2.27,5.42-3.54,8.65-3.54,2.68,0,5.29.87,7.43,2.49"/>
      <polygon class="cls-11" points="720.11 845.26 719.79 844.97 719.4 845 719.07 845.39 718.88 846.28 718.9 847.67 719.16 848.98 719.16 851.04 719.23 852.36 719.43 852.82 720.11 852.77 720.89 852.47 720.73 852.05 720.54 851.39 720.5 849.75 720.38 848.6 720.16 848.09 719.87 847.2 719.88 845.87 720.11 845.26"/>
      <polyline class="cls-11" points="724.27 857.67 724.27 856.42 724.34 854.65 723.95 853.59 722.93 851.28 721.68 849.9 720.42 848.96"/>
      <polyline class="cls-11" points="732.54 857.57 733.37 857.67 735.18 858.38"/>
      <line class="cls-11" x1="726.54" y1="845.55" x2="725.78" y2="846.32"/>
      <polyline class="cls-11" points="710.13 846.48 711.69 846.27 713.71 846.62 715.55 847.37 717.8 847.81"/>
      <polyline class="cls-11" points="704.9 843.07 705.3 841.1 706.28 840.13 707.86 840.38 709.7 840.84 711.9 840.84 713.38 841.51 715.22 842.94 717.01 844.13"/>
      <polyline class="cls-11" points="703.65 847.12 703.36 848.99 703.36 851.91 703.89 854.46 705 855.11 705.69 855.1"/>
      <polyline class="cls-11" points="732.48 826.06 726.1 826.05 725.19 826.34 724.41 827.02 708.63 826.85 708.26 827.18 708.26 827.65 708.56 828.12 724.37 828.06 725.06 828.86 726.66 829.04 727.9 828.86 732.48 828.37"/>
      <line class="cls-11" x1="732.48" y1="826.91" x2="728.18" y2="827.12"/>
      <line class="cls-11" x1="732.51" y1="827.62" x2="728.15" y2="827.91"/>
      <polyline class="cls-11" points="729.06 828.74 728.15 827.91 728.18 827.12 728.82 826.06"/>
      <polygon class="cls-11" points="734.81 874.05 734.44 873.47 733.23 872.81 731.7 872.46 728.15 872.21 723.68 872.28 722.44 872.64 721.8 872.78 708.78 872.67 708.18 873.31 708.25 873.91 708.64 874.37 722.01 874.06 722.56 874.23 734.61 874.42 734.81 874.05"/>
      <polygon class="cls-11" points="708.74 879.01 708.42 878.33 708.6 877.51 709.51 877.42 716.96 878.06 718.96 878.24 721.18 878.06 721.77 877.51 722.36 876.83 724.04 876.56 725.81 876.97 727.35 877.78 727.81 878.51 727.81 879.33 727.17 880.1 725.99 880.46 724.45 880.64 722.9 880.42 722.09 879.78 721.36 878.83 709.78 879.1 708.74 879.01"/>
      <polyline class="cls-11" points="722.17 878.49 722.65 877.89 723.47 877.4"/>
      <path class="cls-11" d="M744.57,869.06c2.2,0,3.99-1.79,3.99-3.99,0-2.2-1.78-3.99-3.99-3.99s-3.99,1.79-3.99,3.99c0,2.2,1.79,3.99,3.99,3.99"/>
      <path class="cls-11" d="M744.57,870.89c3.22,0,5.83-2.61,5.83-5.82,0-3.22-2.61-5.82-5.83-5.82s-5.82,2.61-5.82,5.82,2.61,5.82,5.82,5.82"/>
      <path class="cls-11" d="M747.02,866.4c-.49.9-1.43,1.46-2.45,1.46-1.38,0-2.56-1.01-2.76-2.38"/>
      <path class="cls-11" d="M740.69,862.11c.92-1.21,2.36-1.92,3.88-1.92"/>
    </g>
    <rect class="cls-9" x="559.9" y="477.24" width="196.7" height="75.94"/>
    <g class="cls-14">
      <rect class="cls-11" x="682.52" y="627.34" width="74.16" height="55.62"/>
      <line class="cls-11" x1="724.55" y1="632.81" x2="724.94" y2="634.25"/>
      <line class="cls-11" x1="725.51" y1="636.39" x2="725.9" y2="637.82"/>
      <line class="cls-11" x1="726.47" y1="639.97" x2="726.85" y2="641.4"/>
      <line class="cls-11" x1="727.43" y1="643.55" x2="727.52" y2="643.87"/>
      <line class="cls-11" x1="727.52" y1="643.87" x2="727.9" y2="645.31"/>
      <line class="cls-11" x1="719.6" y1="632.81" x2="719.6" y2="634.29"/>
      <line class="cls-11" x1="719.6" y1="636.52" x2="719.6" y2="638"/>
      <line class="cls-11" x1="719.6" y1="640.22" x2="719.6" y2="641.7"/>
      <line class="cls-11" x1="719.6" y1="643.82" x2="719.6" y2="645.31"/>
      <line class="cls-11" x1="714.65" y1="632.81" x2="714.26" y2="634.25"/>
      <line class="cls-11" x1="713.69" y1="636.39" x2="713.3" y2="637.82"/>
      <line class="cls-11" x1="712.73" y1="639.97" x2="712.35" y2="641.4"/>
      <line class="cls-11" x1="711.77" y1="643.55" x2="711.68" y2="643.87"/>
      <line class="cls-11" x1="711.68" y1="643.87" x2="711.3" y2="645.31"/>
      <path class="cls-11" d="M719.08,676.23v-7.17s0-.06,0-.09c0-1.06-.57-2.03-1.5-2.55-1.81-.98-2.93-2.88-2.93-4.94,0-.36.03-.72.1-1.07l1.34-8.11h7s1.34,8.11,1.34,8.11c.07.35.1.71.1,1.07,0,2.06-1.13,3.96-2.93,4.94-.92.51-1.5,1.49-1.5,2.55,0,.03,0,.06,0,.09v7.17c.14-.01.27-.02.41-.02,1.15,0,2.26.45,3.07,1.27h-8.06c.83-.82,1.94-1.27,3.1-1.27.15,0,.29,0,.44.02Z"/>
      <path class="cls-11" d="M706.02,663.89c0-7.5,6.08-13.58,13.58-13.58,7.5,0,13.58,6.08,13.58,13.58,0,6.31-4.31,11.61-10.15,13.13-.73-.52-1.6-.8-2.51-.8-.14,0-.27,0-.41.02v-3.75c4.53-.27,8.13-4,8.13-8.59,0-3.25-1.82-6.05-4.47-7.53l-.67-4.06h-7s-.67,4.06-.67,4.06c-2.65,1.48-4.47,4.27-4.47,7.53,0,4.6,3.6,8.32,8.13,8.59v3.75c-.15-.02-.29-.03-.44-.03-.91,0-1.78.29-2.52.8-5.81-1.54-10.11-6.82-10.11-13.12Z"/>
    </g>
    <rect class="cls-9" x="682.52" y="682.95" width="74.16" height="234.46"/>
  </g>
  <g id="_Шахты_" data-name="Шахты_">
    <g>
      <rect class="cls-4" x="614.4" y="462.89" width="124.79" height="67.86"/>
      <rect class="cls-4" x="621.21" y="469.73" width="13.05" height="54.17"/>
      <rect class="cls-4" x="718.77" y="469.73" width="13.61" height="54.17"/>
      <rect class="cls-4" x="641.06" y="469.73" width="70.9" height="54.17"/>
    </g>
  </g>
  <g id="_Несущие" data-name="Несущие">
    <polygon class="cls-1" points="316.82 120.62 316.82 150.28 237.3 150.28 237.3 939.97 258.75 939.97 258.75 983.46 268.22 983.46 268.22 1000.86 212.68 1000.86 212.68 120.62 316.82 120.62"/>
    <polygon class="cls-1" points="453.77 123.14 480.91 123.14 480.91 177.42 786.37 177.42 786.37 1000.86 503 1000.86 503 983.46 509.31 983.46 509.31 939.97 757.97 939.97 757.97 203.93 454.4 203.93 453.77 123.14"/>
    <polygon class="cls-1" points="396.18 983.47 396.18 939.97 375.35 939.97 375.35 983.47 368.73 983.47 368.73 1000.86 402.81 1000.86 402.81 983.47 396.18 983.47"/>
  </g>
  <g id="_Площади" data-name="Площади">
    <g>
      <path class="cls-13" d="M360.87,643.67l-3.39,3.39c-.28.28-.63.42-1.03.42-.99,0-1.48-.49-1.48-1.48,0-.4.14-.75.42-1.03l5.77-5.77c.39-.39.78-.58,1.18-.58.98,0,1.48.49,1.48,1.48v26.56c0,.98-.49,1.48-1.48,1.48s-1.48-.49-1.48-1.47v-22.99Z"/>
      <path class="cls-13" d="M383.89,653.38c0,3.52-.43,6.56-1.3,9.12-1.27,3.76-3.29,5.63-6.08,5.63s-4.81-1.87-6.08-5.61c-.86-2.56-1.3-5.61-1.3-9.14s.43-6.58,1.3-9.14c1.27-3.74,3.29-5.61,6.08-5.61s4.81,1.88,6.08,5.63c.86,2.56,1.3,5.6,1.3,9.12ZM380.94,653.38c0-2.44-.26-4.75-.78-6.91-.79-3.26-2-4.9-3.64-4.9s-2.83,1.64-3.62,4.92c-.54,2.21-.81,4.5-.81,6.89s.26,4.73.78,6.91c.79,3.26,2,4.9,3.64,4.9s2.85-1.63,3.64-4.9c.52-2.18.78-4.48.78-6.91Z"/>
      <path class="cls-13" d="M390.25,665.19c.98,0,1.48.48,1.48,1.45,0,.13-.51,2.23-1.52,6.28-.18.75-.66,1.12-1.43,1.12-.98,0-1.48-.49-1.48-1.48,0-.67.51-2.76,1.52-6.26.21-.75.69-1.12,1.43-1.12Z"/>
      <path class="cls-13" d="M399.93,668.14c-.39,0-.73-.15-1.03-.45-.3-.3-.45-.64-.45-1.03,0-.69.25-1.11.74-1.27,1.07-.36,1.97-.77,2.68-1.23,3.17-2.06,4.95-4.66,5.32-7.82h-4.31c-2.04,0-3.78-.72-5.22-2.16-1.44-1.44-2.16-3.18-2.16-5.22v-2.95c0-2.04.72-3.78,2.16-5.22,1.44-1.44,3.18-2.16,5.22-2.16s3.8.71,5.23,2.13,2.15,3.16,2.15,5.2v8.9c0,5.01-2.33,8.96-7,11.87-1.51.94-2.62,1.41-3.33,1.41ZM407.31,653.38v-7.38c0-1.22-.43-2.27-1.3-3.13-.86-.86-1.91-1.3-3.13-1.3s-2.27.43-3.13,1.3c-.86.86-1.3,1.91-1.3,3.13v2.95c0,1.24.43,2.28,1.29,3.14.86.86,1.9,1.29,3.14,1.29h4.43Z"/>
      <path class="cls-13" d="M421.48,643.67l-3.39,3.39c-.28.28-.63.42-1.03.42-.99,0-1.48-.49-1.48-1.48,0-.4.14-.75.42-1.03l5.77-5.77c.39-.39.78-.58,1.18-.58.98,0,1.48.49,1.48,1.48v26.56c0,.98-.49,1.48-1.48,1.48s-1.48-.49-1.48-1.47v-22.99Z"/>
    </g>
    <g>
      <path class="cls-13" d="M553.01,684.41h-2.95c-.98,0-1.48-.49-1.48-1.48s.49-1.48,1.48-1.48h2.95c1.24,0,2.28-.43,3.14-1.29s1.29-1.9,1.29-3.14-.43-2.27-1.3-3.13c-.86-.86-1.91-1.3-3.13-1.3h-5.9c-.98,0-1.48-.49-1.48-1.47s.49-1.48,1.48-1.48h5.9c2.04,0,3.78.72,5.22,2.17,1.44,1.45,2.16,3.18,2.16,5.21,0,2.44-.98,4.41-2.95,5.9,1.97,1.49,2.95,3.46,2.95,5.9v2.95c0,2.04-.72,3.78-2.17,5.22-1.45,1.44-3.18,2.16-5.21,2.16h-5.9c-.98,0-1.48-.49-1.48-1.48s.49-1.48,1.48-1.48h5.9c1.24,0,2.28-.43,3.14-1.29s1.29-1.9,1.29-3.14v-2.95c0-1.22-.43-2.26-1.3-3.13-.86-.86-1.91-1.3-3.13-1.3Z"/>
      <path class="cls-13" d="M567.3,696.21c.98,0,1.48.48,1.48,1.45,0,.13-.51,2.23-1.52,6.28-.18.75-.66,1.12-1.43,1.12-.98,0-1.48-.49-1.48-1.48,0-.67.51-2.76,1.52-6.26.21-.75.69-1.12,1.43-1.12Z"/>
      <path class="cls-13" d="M576.99,699.16c-.39,0-.73-.15-1.03-.45-.3-.3-.45-.64-.45-1.03,0-.69.25-1.11.74-1.27,1.07-.36,1.97-.77,2.68-1.23,3.17-2.06,4.95-4.66,5.32-7.82h-4.31c-2.04,0-3.78-.72-5.22-2.16-1.44-1.44-2.16-3.18-2.16-5.22v-2.95c0-2.04.72-3.78,2.16-5.22,1.44-1.44,3.18-2.16,5.22-2.16s3.8.71,5.23,2.13,2.15,3.16,2.15,5.2v8.9c0,5.01-2.33,8.96-7,11.87-1.51.94-2.62,1.41-3.33,1.41ZM584.37,684.41v-7.38c0-1.22-.43-2.27-1.3-3.13-.86-.86-1.91-1.3-3.13-1.3s-2.27.43-3.13,1.3c-.86.86-1.3,1.91-1.3,3.13v2.95c0,1.24.43,2.28,1.29,3.14.86.86,1.9,1.29,3.14,1.29h4.43Z"/>
      <path class="cls-13" d="M598.54,674.7l-3.39,3.39c-.28.28-.63.42-1.03.42-.99,0-1.48-.49-1.48-1.48,0-.4.14-.75.42-1.03l5.77-5.77c.39-.39.78-.58,1.18-.58.98,0,1.48.49,1.48,1.48v26.56c0,.98-.49,1.48-1.48,1.48s-1.48-.49-1.48-1.47v-22.99Z"/>
    </g>
    <g>
      <path class="cls-13" d="M347.4,197.52h-2.95c-.98,0-1.48-.49-1.48-1.48s.49-1.48,1.48-1.48h2.95c1.24,0,2.28-.43,3.14-1.29.86-.86,1.29-1.9,1.29-3.14s-.43-2.27-1.3-3.13c-.86-.86-1.91-1.3-3.13-1.3h-5.9c-.98,0-1.48-.49-1.48-1.48s.49-1.48,1.48-1.48h5.9c2.04,0,3.78.72,5.22,2.17,1.44,1.45,2.16,3.18,2.16,5.21,0,2.44-.98,4.41-2.95,5.9,1.97,1.49,2.95,3.46,2.95,5.9v2.95c0,2.04-.72,3.78-2.17,5.22-1.45,1.44-3.18,2.16-5.21,2.16h-5.9c-.98,0-1.48-.49-1.48-1.48s.49-1.48,1.48-1.48h5.9c1.24,0,2.28-.43,3.14-1.29s1.29-1.9,1.29-3.14v-2.95c0-1.22-.43-2.27-1.3-3.13-.86-.86-1.91-1.3-3.13-1.3Z"/>
      <path class="cls-13" d="M361.7,209.32c.98,0,1.48.48,1.48,1.45,0,.13-.51,2.23-1.52,6.28-.18.75-.66,1.12-1.43,1.12-.98,0-1.48-.49-1.48-1.48,0-.67.51-2.76,1.52-6.26.21-.75.69-1.12,1.43-1.12Z"/>
      <path class="cls-13" d="M375.32,212.27c-2.04,0-3.78-.72-5.22-2.16-1.44-1.44-2.16-3.18-2.16-5.22v-2.95c0-2.44.98-4.41,2.95-5.9-1.97-1.49-2.95-3.46-2.95-5.9,0-2.04.72-3.78,2.16-5.22,1.44-1.44,3.18-2.16,5.22-2.16s3.78.72,5.22,2.16c1.44,1.44,2.16,3.18,2.16,5.22,0,2.44-.98,4.41-2.95,5.9,1.42,1.07,2.31,2.39,2.68,3.96.18.79.27,2.42.27,4.9,0,2.04-.72,3.78-2.16,5.22-1.44,1.44-3.18,2.16-5.22,2.16ZM375.32,194.57c1.24,0,2.28-.43,3.14-1.29.86-.86,1.29-1.9,1.29-3.14s-.43-2.27-1.3-3.13c-.86-.86-1.91-1.3-3.13-1.3s-2.28.43-3.14,1.29c-.86.86-1.29,1.9-1.29,3.14s.43,2.28,1.29,3.14c.86.86,1.9,1.29,3.14,1.29ZM375.32,209.32c1.24,0,2.28-.43,3.14-1.29s1.29-1.9,1.29-3.14v-2.95c0-1.22-.43-2.27-1.3-3.13-.86-.86-1.91-1.3-3.13-1.3s-2.28.43-3.14,1.29c-.86.86-1.29,1.9-1.29,3.14v2.95c0,1.24.43,2.28,1.29,3.14.86.86,1.9,1.29,3.14,1.29Z"/>
      <path class="cls-13" d="M394.67,197.52h-2.95c-.98,0-1.48-.49-1.48-1.48s.49-1.48,1.48-1.48h2.95c1.24,0,2.28-.43,3.14-1.29.86-.86,1.29-1.9,1.29-3.14s-.43-2.27-1.3-3.13c-.86-.86-1.91-1.3-3.13-1.3h-5.9c-.98,0-1.48-.49-1.48-1.48s.49-1.48,1.48-1.48h5.9c2.04,0,3.78.72,5.22,2.17,1.44,1.45,2.16,3.18,2.16,5.21,0,2.44-.98,4.41-2.95,5.9,1.97,1.49,2.95,3.46,2.95,5.9v2.95c0,2.04-.72,3.78-2.17,5.22-1.45,1.44-3.18,2.16-5.21,2.16h-5.9c-.98,0-1.48-.49-1.48-1.48s.49-1.48,1.48-1.48h5.9c1.24,0,2.28-.43,3.14-1.29s1.29-1.9,1.29-3.14v-2.95c0-1.22-.43-2.27-1.3-3.13-.86-.86-1.91-1.3-3.13-1.3Z"/>
    </g>
    <g>
      <path class="cls-13" d="M552.4,321.98h-2.95c-.98,0-1.48-.49-1.48-1.48s.49-1.48,1.48-1.48h2.95c1.24,0,2.28-.43,3.14-1.29.86-.86,1.29-1.9,1.29-3.14s-.43-2.27-1.3-3.13c-.86-.86-1.91-1.3-3.13-1.3h-5.9c-.98,0-1.48-.49-1.48-1.48s.49-1.48,1.48-1.48h5.9c2.04,0,3.78.72,5.22,2.17,1.44,1.45,2.16,3.18,2.16,5.21,0,2.44-.98,4.41-2.95,5.9,1.97,1.49,2.95,3.46,2.95,5.9v2.95c0,2.04-.72,3.78-2.17,5.22-1.45,1.44-3.18,2.16-5.21,2.16h-5.9c-.98,0-1.48-.49-1.48-1.48s.49-1.48,1.48-1.48h5.9c1.24,0,2.28-.43,3.14-1.29s1.29-1.9,1.29-3.14v-2.95c0-1.22-.43-2.26-1.3-3.13-.86-.86-1.91-1.3-3.13-1.3Z"/>
      <path class="cls-13" d="M566.69,333.78c.98,0,1.48.48,1.48,1.45,0,.13-.51,2.23-1.52,6.28-.18.75-.66,1.12-1.43,1.12-.98,0-1.48-.49-1.48-1.48,0-.67.51-2.76,1.52-6.26.21-.75.69-1.12,1.43-1.12Z"/>
      <path class="cls-13" d="M576.5,312.27l-3.39,3.39c-.28.28-.63.42-1.03.42-.99,0-1.48-.49-1.48-1.48,0-.4.14-.75.42-1.03l5.77-5.77c.39-.39.78-.58,1.18-.58.98,0,1.48.49,1.48,1.48v26.56c0,.98-.49,1.48-1.48,1.48s-1.48-.49-1.48-1.47v-22.99Z"/>
      <path class="cls-13" d="M593.25,323.46h-1.1c-.99,0-1.48-.49-1.48-1.48s.49-1.48,1.47-1.48h1.74s2.32-10.33,2.32-10.33h-9.95c-.98,0-1.48-.49-1.48-1.48s.49-1.48,1.48-1.48h11.8c.97,0,1.46.48,1.48,1.43,0,.09-.01.21-.04.36l-2.55,11.49h1.12c.99,0,1.48.49,1.48,1.48s-.49,1.47-1.48,1.47h-1.79s-2.67,12.12-2.67,12.12c-.18.78-.65,1.16-1.41,1.16-1,0-1.5-.49-1.5-1.47,0-.15,0-.26.03-.33l2.55-11.47Z"/>
    </g>
  </g>
</svg>